<?xml version="1.0" encoding="utf-8"?>
<!-- Generator: Adobe Illustrator 19.2.0, SVG Export Plug-In . SVG Version: 6.00 Build 0)  -->
<svg version="1.1" id="Calque_1" xmlns="http://www.w3.org/2000/svg" xmlns:xlink="http://www.w3.org/1999/xlink" x="0px" y="0px"
	 viewBox="0 0 361.4 455.2" style="enable-background:new 0 0 361.4 455.2;" xml:space="preserve">
<style type="text/css">
	.st0{fill:#FFFFFF;}
	.st1{fill:none;stroke:#BEAA24;stroke-width:1.3223;stroke-miterlimit:10;}
	.st2{opacity:0.6;}
	.st3{clip-path:url(#SVGID_4_);}
	.st4{fill:none;stroke:#BEAB24;stroke-width:2.6446;stroke-linejoin:round;stroke-miterlimit:10;}
	.st5{fill:none;stroke:#FFFFFF;stroke-width:5.2892;stroke-linejoin:round;stroke-miterlimit:10;}
</style>
<g>
	<g>
		<g>
			<path class="st0" d="M7,414.4v12.2h4.4v1.4H7v5.3H5.4V413h6.7v1.3H7z"/>
			<path class="st0" d="M38,433.2h-1.5v-3.5c0-1-0.7-1.7-1.8-1.7h-2.9v5.3h-1.5V413H34c2.2,0,3.9,1.2,3.9,4.1v6.7
				c0,1.1-0.6,2.5-1.6,3.2c1.2,0.5,1.8,1.5,1.8,2.6V433.2z M31.9,426.6H34c1,0,2.4-1,2.4-2.7v-6.7c0-1.7-0.8-2.7-2.4-2.7h-2.1V426.6
				z"/>
			<path class="st0" d="M56.6,429.2V417c0-2.2,1.4-4.2,4-4.2c2.4,0,3.8,2,3.8,4.2v12.1c0,2.1-1.3,4.2-3.8,4.2
				C58.1,433.4,56.6,431.5,56.6,429.2z M58.2,417v12.2c0,1.5,0.8,2.8,2.5,2.8c1.6,0,2.4-1.3,2.4-2.8v-12.1c0-1.4-0.7-2.9-2.4-2.9
				C58.9,414.2,58.2,415.5,58.2,417z"/>
			<path class="st0" d="M90,414.1l-6,17.7h5.9v1.4h-7.5v-1.2l6.1-17.7H83V413H90V414.1z"/>
			<path class="st0" d="M109.8,414.4v12.1h4.4v1.3h-4.4v4h5.5v1.4h-7V413h7v1.3H109.8z"/>
			<path class="st0" d="M141.9,413v20.2h-1.4l-4.2-12.3l-1.2-4.2l0.2,4.4v12.1h-1.5V413h1.4l4.3,12.7l1.2,4l-0.2-4.2V413H141.9z"/>
			<path class="st0" d="M201.4,413l-3.9,15.2v5H196v-5l-3.8-15.2h1.5l1.9,7.4l1.2,5.5l1.2-5.5c0.6-2.5,1.3-5,1.9-7.4H201.4z"/>
			<path class="st0" d="M219.2,429.2V417c0-2.2,1.4-4.2,4-4.2c2.4,0,3.8,2,3.8,4.2v12.1c0,2.1-1.3,4.2-3.8,4.2
				C220.7,433.4,219.2,431.5,219.2,429.2z M220.7,417v12.2c0,1.5,0.8,2.8,2.5,2.8c1.6,0,2.4-1.3,2.4-2.8v-12.1
				c0-1.4-0.7-2.9-2.4-2.9C221.5,414.2,220.7,415.5,220.7,417z"/>
			<path class="st0" d="M253.6,426.4v2.8c0,2.4-1.4,4.2-3.8,4.2c-2.4,0-4-1.5-4-4.2v-12c0-2.3,1.5-4.3,3.9-4.3
				c2.4,0,3.9,1.8,3.9,4.2v1.8h-1.4v-1.8c0-1.6-0.7-2.9-2.4-2.9c-1.5,0-2.4,1.2-2.4,2.9v12c0,1.7,0.8,2.8,2.4,2.8
				c1.4,0,2.4-0.9,2.4-2.8v-1.5h-2.9v-1.3H253.6z"/>
			<path class="st0" d="M280.1,413v20.2h-1.5v-5.2h-4.8v5.2h-1.5V413h1.5v13.7h4.8V413H280.1z"/>
			<path class="st0" d="M307.1,429.2c0,2.1-1.3,4.2-3.9,4.2c-2.4,0-3.9-1.9-3.9-4.3V413h1.5v16.1c0,1.4,0.7,2.9,2.4,2.9
				c1.8,0,2.4-1.3,2.4-2.9V413h1.5V429.2z"/>
			<path class="st0" d="M333.9,433.2h-1.5v-3.5c0-1-0.7-1.7-1.8-1.7h-2.9v5.3h-1.5V413h3.7c2.2,0,3.9,1.2,3.9,4.1v6.7
				c0,1.1-0.6,2.5-1.6,3.2c1.2,0.5,1.8,1.5,1.8,2.6V433.2z M327.8,426.6h2.1c1,0,2.4-1,2.4-2.7v-6.7c0-1.7-0.8-2.7-2.4-2.7h-2.1
				V426.6z"/>
			<path class="st0" d="M358.8,414.4H356v18.8h-1.5v-18.8h-2.8V413h7.1V414.4z"/>
		</g>
		<line class="st1" x1="2.9" y1="398.3" x2="361.4" y2="398.3"/>
		<line class="st1" x1="0" y1="448" x2="358.5" y2="448"/>
		<line class="st1" x1="79.6" y1="454.6" x2="278.8" y2="454.6"/>
		<line class="st1" x1="79.6" y1="391.7" x2="278.8" y2="391.7"/>
	</g>
	<g>
		<g class="st2">
			<g>
				<defs>
					<path id="SVGID_1_" d="M195,334.9c-5.5-3.6-14.3-3.4-19.7,0.4l-2.9,2.1c-5.3,3.8-13.2,2.8-17.5-2.1l-2.3-2.7
						c-4.3-4.9-12.9-7.2-19-5l-3.4,1.2c-6.2,2.2-13.5-0.8-16.3-6.7l-1.5-3.2c-2.8-5.9-10.5-10.4-17-9.9l-3.6,0.2
						c-6.5,0.5-12.8-4.4-13.9-10.9l-0.6-3.5c-1.1-6.4-7.3-12.8-13.7-14.1L60,280c-6.4-1.3-11.1-7.7-10.5-14.2l0.4-3.5
						c0.7-6.5-3.6-14.3-9.4-17.3l-3.2-1.6c-5.8-3-8.6-10.4-6.2-16.5l1.3-3.3c2.4-6.1,0.4-14.7-4.4-19.2l-2.6-2.4
						c-4.8-4.5-5.5-12.4-1.5-17.6l2.2-2.8c3.9-5.2,4.4-14.1,1-19.6l-1.9-3c-3.4-5.6-1.9-13.4,3.3-17.4l2.8-2.2
						c5.2-4,8-12.4,6.2-18.7l-1-3.4c-1.8-6.3,1.8-13.4,7.8-15.8l3.3-1.3c6.1-2.4,11.1-9.7,11-16.3l0-3.6c0-6.5,5.3-12.5,11.8-13.1
						l3.5-0.4c6.5-0.7,13.3-6.4,15-12.7l1-3.4c1.8-6.3,8.5-10.6,14.9-9.5l3.5,0.6c6.5,1.1,14.5-2.6,17.9-8.2l1.8-3.1
						c3.4-5.6,11-7.9,16.9-5.1l3.2,1.5c5.9,2.8,14.7,1.4,19.4-3l2.6-2.4c4.8-4.5,12.7-4.6,17.7-0.3l2.7,2.3
						c4.9,4.3,13.7,5.3,19.5,2.3l3.2-1.6c5.8-3,13.5-1,17.1,4.5l2,3c3.6,5.5,11.8,8.8,18.2,7.5l3.5-0.7c6.4-1.3,13.3,2.7,15.3,8.9
						l1.1,3.4c2,6.2,9,11.7,15.5,12.1l3.6,0.2c6.5,0.4,12.1,6.1,12.3,12.7l0.1,3.6c0.2,6.5,5.5,13.7,11.6,15.9l3.4,1.2
						c6.2,2.2,10,9.2,8.4,15.5l-0.8,3.5c-1.5,6.4,1.6,14.6,6.9,18.4l2.9,2.1c5.4,3.8,7.1,11.5,3.9,17.2l-1.7,3.1
						c-3.2,5.7-2.4,14.5,1.7,19.6l2.3,2.8c4.1,5.1,3.7,13-0.9,17.6l-2.5,2.5c-4.6,4.6-6.3,13.3-3.6,19.3l1.4,3.3
						c2.6,6,0.1,13.5-5.6,16.8l-3.1,1.8c-5.7,3.2-9.6,11.1-8.7,17.6l0.5,3.5c0.9,6.5-3.6,13.1-9.9,14.6l-3.5,0.8
						c-6.4,1.6-12.3,8.1-13.2,14.6l-0.5,3.5c-0.9,6.5-7,11.6-13.5,11.4l-3.6-0.1c-6.5-0.2-14,4.5-16.6,10.5l-1.4,3.3
						c-2.6,6-9.8,9.3-16.1,7.3l-3.4-1.1c-6.2-2-14.7,0.6-18.8,5.7l-2.2,2.8c-4.1,5.1-12,6.3-17.5,2.7L195,334.9z"/>
				</defs>
				<clipPath id="SVGID_2_">
					<use xlink:href="#SVGID_1_"  style="overflow:visible;"/>
				</clipPath>
			</g>
			<g>
				<defs>
					<path id="SVGID_3_" d="M195,334.9c-5.5-3.6-14.3-3.4-19.7,0.4l-2.9,2.1c-5.3,3.8-13.2,2.8-17.5-2.1l-2.3-2.7
						c-4.3-4.9-12.9-7.2-19-5l-3.4,1.2c-6.2,2.2-13.5-0.8-16.3-6.7l-1.5-3.2c-2.8-5.9-10.5-10.4-17-9.9l-3.6,0.2
						c-6.5,0.5-12.8-4.4-13.9-10.9l-0.6-3.5c-1.1-6.4-7.3-12.8-13.7-14.1L60,280c-6.4-1.3-11.1-7.7-10.5-14.2l0.4-3.5
						c0.7-6.5-3.6-14.3-9.4-17.3l-3.2-1.6c-5.8-3-8.6-10.4-6.2-16.5l1.3-3.3c2.4-6.1,0.4-14.7-4.4-19.2l-2.6-2.4
						c-4.8-4.5-5.5-12.4-1.5-17.6l2.2-2.8c3.9-5.2,4.4-14.1,1-19.6l-1.9-3c-3.4-5.6-1.9-13.4,3.3-17.4l2.8-2.2
						c5.2-4,8-12.4,6.2-18.7l-1-3.4c-1.8-6.3,1.8-13.4,7.8-15.8l3.3-1.3c6.1-2.4,11.1-9.7,11-16.3l0-3.6c0-6.5,5.3-12.5,11.8-13.1
						l3.5-0.4c6.5-0.7,13.3-6.4,15-12.7l1-3.4c1.8-6.3,8.5-10.6,14.9-9.5l3.5,0.6c6.5,1.1,14.5-2.6,17.9-8.2l1.8-3.1
						c3.4-5.6,11-7.9,16.9-5.1l3.2,1.5c5.9,2.8,14.7,1.4,19.4-3l2.6-2.4c4.8-4.5,12.7-4.6,17.7-0.3l2.7,2.3
						c4.9,4.3,13.7,5.3,19.5,2.3l3.2-1.6c5.8-3,13.5-1,17.1,4.5l2,3c3.6,5.5,11.8,8.8,18.2,7.5l3.5-0.7c6.4-1.3,13.3,2.7,15.3,8.9
						l1.1,3.4c2,6.2,9,11.7,15.5,12.1l3.6,0.2c6.5,0.4,12.1,6.1,12.3,12.7l0.1,3.6c0.2,6.5,5.5,13.7,11.6,15.9l3.4,1.2
						c6.2,2.2,10,9.2,8.4,15.5l-0.8,3.5c-1.5,6.4,1.6,14.6,6.9,18.4l2.9,2.1c5.4,3.8,7.1,11.5,3.9,17.2l-1.7,3.1
						c-3.2,5.7-2.4,14.5,1.7,19.6l2.3,2.8c4.1,5.1,3.7,13-0.9,17.6l-2.5,2.5c-4.6,4.6-6.3,13.3-3.6,19.3l1.4,3.3
						c2.6,6,0.1,13.5-5.6,16.8l-3.1,1.8c-5.7,3.2-9.6,11.1-8.7,17.6l0.5,3.5c0.9,6.5-3.6,13.1-9.9,14.6l-3.5,0.8
						c-6.4,1.6-12.3,8.1-13.2,14.6l-0.5,3.5c-0.9,6.5-7,11.6-13.5,11.4l-3.6-0.1c-6.5-0.2-14,4.5-16.6,10.5l-1.4,3.3
						c-2.6,6-9.8,9.3-16.1,7.3l-3.4-1.1c-6.2-2-14.7,0.6-18.8,5.7l-2.2,2.8c-4.1,5.1-12,6.3-17.5,2.7L195,334.9z"/>
				</defs>
				<clipPath id="SVGID_4_">
					<use xlink:href="#SVGID_3_"  style="overflow:visible;"/>
				</clipPath>
				<g class="st3">
					<g>
						<g>
							<path class="st4" d="M38.8-29.8c44.4,9.4,35.4,52,79.7,61.4c44.4,9.4,53.4-33.3,97.7-24c44.4,9.4,35.4,52,79.7,61.4
								s53.4-33.3,97.7-24"/>
						</g>
						<g>
							<path class="st4" d="M35.7-15.1C80-5.7,71,37,115.4,46.3c44.4,9.4,53.4-33.3,97.7-24c44.4,9.4,35.4,52,79.7,61.4
								s53.4-33.3,97.7-24"/>
						</g>
						<g>
							<path class="st4" d="M32.6-0.3c44.4,9.4,35.4,52,79.7,61.4c44.4,9.4,53.4-33.3,97.7-24c44.4,9.4,35.4,52,79.7,61.4
								s53.4-33.3,97.7-24"/>
						</g>
						<g>
							<path class="st4" d="M29.5,14.4c44.4,9.4,35.4,52,79.7,61.4c44.4,9.4,53.4-33.3,97.7-24c44.4,9.4,35.4,52,79.7,61.4
								s53.4-33.3,97.7-24"/>
						</g>
						<g>
							<path class="st4" d="M26.4,29.1c44.4,9.4,35.4,52,79.7,61.4c44.4,9.4,53.4-33.3,97.7-24c44.4,9.4,35.4,52,79.7,61.4
								s53.4-33.3,97.7-24"/>
						</g>
						<g>
							<path class="st4" d="M23.2,43.8c44.4,9.4,35.4,52,79.7,61.4c44.4,9.4,53.4-33.3,97.7-24c44.4,9.4,35.4,52,79.7,61.4
								s53.4-33.3,97.7-24"/>
						</g>
						<g>
							<path class="st4" d="M20.1,58.5c44.4,9.4,35.4,52,79.7,61.4c44.4,9.4,53.4-33.3,97.7-24c44.4,9.4,35.4,52,79.7,61.4
								c44.4,9.4,53.4-33.3,97.7-24"/>
						</g>
						<g>
							<path class="st4" d="M17,73.3c44.4,9.4,35.4,52,79.7,61.4c44.4,9.4,53.4-33.3,97.7-24c44.4,9.4,35.4,52,79.7,61.4
								s53.4-33.3,97.7-24"/>
						</g>
						<g>
							<path class="st4" d="M13.9,88c44.4,9.4,35.4,52,79.7,61.4c44.4,9.4,53.4-33.3,97.7-24c44.4,9.4,35.4,52,79.7,61.4
								c44.4,9.4,53.4-33.3,97.7-24"/>
						</g>
						<g>
							<path class="st4" d="M10.8,102.7c44.4,9.4,35.4,52,79.7,61.4c44.4,9.4,53.4-33.3,97.7-24c44.4,9.4,35.4,52,79.7,61.4
								s53.4-33.3,97.7-24"/>
						</g>
						<g>
							<path class="st4" d="M7.7,117.4c44.4,9.4,35.4,52,79.7,61.4c44.4,9.4,53.4-33.3,97.7-24c44.4,9.4,35.4,52,79.7,61.4
								c44.4,9.4,53.4-33.3,97.7-24"/>
						</g>
						<g>
							<path class="st4" d="M4.6,132.1c44.4,9.4,35.4,52,79.7,61.4c44.4,9.4,53.4-33.3,97.7-24c44.4,9.4,35.4,52,79.7,61.4
								c44.4,9.4,53.4-33.3,97.7-24"/>
						</g>
						<g>
							<path class="st4" d="M1.5,146.8c44.4,9.4,35.4,52,79.7,61.4c44.4,9.4,53.4-33.3,97.7-24c44.4,9.4,35.4,52,79.7,61.4
								c44.4,9.4,53.4-33.3,97.7-24"/>
						</g>
						<g>
							<path class="st4" d="M-1.6,161.6c44.4,9.4,35.4,52,79.7,61.4c44.4,9.4,53.4-33.3,97.7-24c44.4,9.4,35.4,52,79.7,61.4
								s53.4-33.3,97.7-24"/>
						</g>
						<g>
							<path class="st4" d="M-4.7,176.3c44.4,9.4,35.4,52,79.7,61.4c44.4,9.4,53.4-33.3,97.7-24c44.4,9.4,35.4,52,79.7,61.4
								s53.4-33.3,97.7-24"/>
						</g>
						<g>
							<path class="st4" d="M-7.8,191c44.4,9.4,35.4,52,79.7,61.4c44.4,9.4,53.4-33.3,97.7-24c44.4,9.4,35.4,52,79.7,61.4
								c44.4,9.4,53.4-33.3,97.7-24"/>
						</g>
						<g>
							<path class="st4" d="M-10.9,205.7c44.4,9.4,35.4,52,79.7,61.4c44.4,9.4,53.4-33.3,97.7-24c44.4,9.4,35.4,52,79.7,61.4
								c44.4,9.4,53.4-33.3,97.7-24"/>
						</g>
						<g>
							<path class="st4" d="M-14,220.4c44.4,9.4,35.4,52,79.7,61.4c44.4,9.4,53.4-33.3,97.7-24c44.4,9.4,35.4,52,79.7,61.4
								s53.4-33.3,97.7-24"/>
						</g>
						<g>
							<path class="st4" d="M-17.1,235.2c44.4,9.4,35.4,52,79.7,61.4c44.4,9.4,53.4-33.3,97.7-24c44.4,9.4,35.4,52,79.7,61.4
								s53.4-33.3,97.7-24"/>
						</g>
						<g>
							<path class="st4" d="M-20.2,249.9c44.4,9.4,35.4,52,79.7,61.4c44.4,9.4,53.4-33.3,97.7-24c44.4,9.4,35.4,52,79.7,61.4
								c44.4,9.4,53.4-33.3,97.7-24"/>
						</g>
						<g>
							<path class="st4" d="M-23.3,264.6c44.4,9.4,35.4,52,79.7,61.4c44.4,9.4,53.4-33.3,97.7-24c44.4,9.4,35.4,52,79.7,61.4
								c44.4,9.4,53.4-33.3,97.7-24"/>
						</g>
						<g>
							<path class="st4" d="M-26.4,279.3c44.4,9.4,35.4,52,79.7,61.4c44.4,9.4,53.4-33.3,97.7-24c44.4,9.4,35.4,52,79.7,61.4
								s53.4-33.3,97.7-24"/>
						</g>
						<g>
							<path class="st4" d="M-29.5,294c44.4,9.4,35.4,52,79.7,61.4c44.4,9.4,53.4-33.3,97.7-24c44.4,9.4,35.4,52,79.7,61.4
								s53.4-33.3,97.7-24"/>
						</g>
						<g>
							<path class="st4" d="M-32.6,308.7c44.4,9.4,35.4,52,79.7,61.4c44.4,9.4,53.4-33.3,97.7-24c44.4,9.4,35.4,52,79.7,61.4
								c44.4,9.4,53.4-33.3,97.7-24"/>
						</g>
					</g>
				</g>
			</g>
			<g>
				<defs>
					<path id="SVGID_5_" d="M195,334.9c-5.5-3.6-14.3-3.4-19.7,0.4l-2.9,2.1c-5.3,3.8-13.2,2.8-17.5-2.1l-2.3-2.7
						c-4.3-4.9-12.9-7.2-19-5l-3.4,1.2c-6.2,2.2-13.5-0.8-16.3-6.7l-1.5-3.2c-2.8-5.9-10.5-10.4-17-9.9l-3.6,0.2
						c-6.5,0.5-12.8-4.4-13.9-10.9l-0.6-3.5c-1.1-6.4-7.3-12.8-13.7-14.1L60,280c-6.4-1.3-11.1-7.7-10.5-14.2l0.4-3.5
						c0.7-6.5-3.6-14.3-9.4-17.3l-3.2-1.6c-5.8-3-8.6-10.4-6.2-16.5l1.3-3.3c2.4-6.1,0.4-14.7-4.4-19.2l-2.6-2.4
						c-4.8-4.5-5.5-12.4-1.5-17.6l2.2-2.8c3.9-5.2,4.4-14.1,1-19.6l-1.9-3c-3.4-5.6-1.9-13.4,3.3-17.4l2.8-2.2
						c5.2-4,8-12.4,6.2-18.7l-1-3.4c-1.8-6.3,1.8-13.4,7.8-15.8l3.3-1.3c6.1-2.4,11.1-9.7,11-16.3l0-3.6c0-6.5,5.3-12.5,11.8-13.1
						l3.5-0.4c6.5-0.7,13.3-6.4,15-12.7l1-3.4c1.8-6.3,8.5-10.6,14.9-9.5l3.5,0.6c6.5,1.1,14.5-2.6,17.9-8.2l1.8-3.1
						c3.4-5.6,11-7.9,16.9-5.1l3.2,1.5c5.9,2.8,14.7,1.4,19.4-3l2.6-2.4c4.8-4.5,12.7-4.6,17.7-0.3l2.7,2.3
						c4.9,4.3,13.7,5.3,19.5,2.3l3.2-1.6c5.8-3,13.5-1,17.1,4.5l2,3c3.6,5.5,11.8,8.8,18.2,7.5l3.5-0.7c6.4-1.3,13.3,2.7,15.3,8.9
						l1.1,3.4c2,6.2,9,11.7,15.5,12.1l3.6,0.2c6.5,0.4,12.1,6.1,12.3,12.7l0.1,3.6c0.2,6.5,5.5,13.7,11.6,15.9l3.4,1.2
						c6.2,2.2,10,9.2,8.4,15.5l-0.8,3.5c-1.5,6.4,1.6,14.6,6.9,18.4l2.9,2.1c5.4,3.8,7.1,11.5,3.9,17.2l-1.7,3.1
						c-3.2,5.7-2.4,14.5,1.7,19.6l2.3,2.8c4.1,5.1,3.7,13-0.9,17.6l-2.5,2.5c-4.6,4.6-6.3,13.3-3.6,19.3l1.4,3.3
						c2.6,6,0.1,13.5-5.6,16.8l-3.1,1.8c-5.7,3.2-9.6,11.1-8.7,17.6l0.5,3.5c0.9,6.5-3.6,13.1-9.9,14.6l-3.5,0.8
						c-6.4,1.6-12.3,8.1-13.2,14.6l-0.5,3.5c-0.9,6.5-7,11.6-13.5,11.4l-3.6-0.1c-6.5-0.2-14,4.5-16.6,10.5l-1.4,3.3
						c-2.6,6-9.8,9.3-16.1,7.3l-3.4-1.1c-6.2-2-14.7,0.6-18.8,5.7l-2.2,2.8c-4.1,5.1-12,6.3-17.5,2.7L195,334.9z"/>
				</defs>
				<clipPath id="SVGID_6_">
					<use xlink:href="#SVGID_5_"  style="overflow:visible;"/>
				</clipPath>
			</g>
		</g>
		<g>
			<path class="st5" d="M281.4,317.2c-6.5-0.2-14,4.5-16.6,10.5l-2.4,5.6c-2.6,6-9.8,9.3-16.1,7.3l-5.8-1.8
				c-6.2-2-14.7,0.6-18.8,5.7l-3.8,4.7c-4.1,5.1-12,6.3-17.5,2.7l-5.1-3.3c-5.5-3.6-14.3-3.4-19.7,0.4l-5,3.5
				c-5.3,3.8-13.2,2.9-17.5-2.1l-4-4.6c-4.3-4.9-12.9-7.2-19-4.9l-5.7,2c-6.2,2.2-13.5-0.8-16.3-6.7l-2.6-5.5
				c-2.8-5.9-10.5-10.4-17-9.9l-6.1,0.4c-6.5,0.5-12.8-4.4-13.9-10.9l-1-6c-1.1-6.4-7.3-12.8-13.7-14.1l-6-1.2
				c-6.4-1.3-11.1-7.7-10.5-14.2l0.6-6c0.7-6.5-3.6-14.3-9.4-17.3l-5.4-2.8c-5.8-3-8.6-10.4-6.2-16.5l2.2-5.7
				c2.4-6.1,0.4-14.7-4.4-19.2l-4.5-4.1c-4.8-4.5-5.5-12.4-1.5-17.6l3.7-4.8c3.9-5.2,4.4-14.1,1-19.7l-3.2-5.2
				c-3.4-5.6-1.9-13.4,3.3-17.4l4.8-3.7c5.2-4,8-12.4,6.2-18.7l-1.7-5.8c-1.8-6.3,1.7-13.4,7.8-15.8l5.6-2.2
				c6.1-2.4,11.1-9.7,11-16.3l0-6.1c0-6.5,5.3-12.5,11.8-13.1l6-0.6c6.5-0.7,13.3-6.4,15-12.7l1.6-5.9c1.8-6.3,8.5-10.6,14.9-9.5
				l6,1c6.5,1.1,14.5-2.6,17.9-8.2l3.1-5.2c3.4-5.6,11-7.9,16.9-5.1l5.5,2.6c5.9,2.8,14.7,1.4,19.4-3.1l4.4-4.2
				c4.8-4.5,12.7-4.6,17.7-0.3l4.6,4c4.9,4.3,13.7,5.3,19.5,2.3l5.4-2.8c5.8-3,13.5-1,17.1,4.4l3.3,5.1c3.6,5.5,11.8,8.8,18.2,7.5
				l5.9-1.2c6.4-1.3,13.3,2.7,15.3,8.9l1.8,5.8c2,6.2,9,11.7,15.5,12.1l6.1,0.4c6.5,0.4,12.1,6.1,12.3,12.7L313,71
				c0.2,6.5,5.5,13.7,11.7,15.9l5.7,2c6.2,2.2,10,9.2,8.4,15.5l-1.4,5.9c-1.5,6.4,1.6,14.6,6.9,18.4l5,3.5
				c5.4,3.8,7.1,11.5,3.9,17.2l-3,5.3c-3.2,5.7-2.4,14.5,1.7,19.6l3.8,4.7c4.1,5.1,3.8,13-0.9,17.6l-4.3,4.3
				c-4.6,4.6-6.3,13.3-3.6,19.3l2.4,5.6c2.6,6,0.1,13.5-5.6,16.8l-5.3,3c-5.7,3.2-9.6,11.2-8.7,17.6l0.8,6
				c0.9,6.5-3.6,13.1-9.9,14.6l-5.9,1.5c-6.4,1.6-12.3,8.1-13.2,14.6l-0.8,6c-0.9,6.5-6.9,11.6-13.5,11.4L281.4,317.2z"/>
		</g>
		<g>
			<path class="st0" d="M86.3,143.7l-0.4,26.1l-1.5,40.9h-6.1l3.2-83.5h8.1l7.3,47.9l3.2,24.1l3.6-24.1l7.4-47.9h7.7l3.2,83.5h-6.3
				l-1.7-40.9l0.1-26.2h-0.2l-4.1,25.6l-6.7,40.2h-6.7L90,169.2l-3.5-25.5H86.3z"/>
			<path class="st0" d="M157.3,205.1v5.6h-24.6v-83.4h6.3v77.8H157.3z"/>
			<path class="st0" d="M173.5,132.8v50.2h18v5.5h-18v16.7h22.6v5.6h-29v-83.4h29v5.5H173.5z"/>
			<path class="st0" d="M218,180.1c3.2,4.3,7,9.1,23.8,30.6h-7.9l-19.3-24.3l-2.3,4.3v20H206v-83.4h6.3v51.5l5.6-13.8l16.3-37.7h6.8
				L218,180.1z"/>
			<path class="st0" d="M247.6,194.3v-50.4c0-8.9,5.6-17.3,16.6-17.3c10,0,15.9,8.1,15.9,17.4v50.2c0,8.8-5.2,17.4-15.9,17.4
				C253.8,211.5,247.6,203.7,247.6,194.3z M253.9,143.8v50.4c0,6.1,3.2,11.6,10.2,11.6c6.6,0,9.8-5.4,9.8-11.7V144
				c0-5.8-3-11.8-9.8-11.8C257.2,132.2,253.9,137.4,253.9,143.8z"/>
		</g>
		<g>
			<path class="st0" d="M84.5,221.9l0,2.2h-0.3c-0.4-1.3-1.2-2-2.3-2c-0.6,0-1.1,0.2-1.4,0.5c-0.3,0.3-0.5,0.7-0.5,1
				c0,0.3,0.1,0.6,0.4,0.8c0.3,0.2,0.8,0.4,1.5,0.5c0.7,0.1,1.3,0.3,1.7,0.5c0.4,0.2,0.7,0.5,1,0.9c0.3,0.4,0.4,0.9,0.4,1.5
				c0,0.8-0.3,1.6-0.8,2.1c-0.6,0.6-1.2,0.8-2.1,0.8c-0.7,0-1.3-0.2-2-0.7l-0.6,0.5h-0.2v-2.4h0.3c0.3,0.8,0.6,1.3,1.1,1.7
				c0.5,0.4,1,0.6,1.5,0.6c0.5,0,1-0.2,1.5-0.5c0.5-0.4,0.7-0.8,0.7-1.3c0-0.5-0.2-0.8-0.5-1.2c-0.3-0.3-0.8-0.5-1.5-0.6
				c-0.7-0.1-1.2-0.3-1.6-0.4c-0.4-0.2-0.7-0.4-1-0.8c-0.3-0.4-0.4-0.8-0.4-1.3c0-0.7,0.2-1.2,0.7-1.8c0.5-0.5,1.1-0.8,1.9-0.8
				c0.7,0,1.3,0.2,1.9,0.6c0.2-0.2,0.3-0.3,0.4-0.5H84.5z"/>
			<path class="st0" d="M102.7,230.3v-8h-1.4V222h4.4v0.3h-1.4v8h1.4v0.3h-4.4v-0.3H102.7z"/>
			<path class="st0" d="M129.6,222.3v8.5h-0.3l-5.7-8.6h0v8h1.5v0.3H122v-0.3h1.3v-8h-1.4V222h3.3l4,6.1h0v-5.7h-1.4V222h3.1v0.3
				H129.6z"/>
			<path class="st0" d="M153.4,221.9v2.6h-0.3c-0.3-1.6-1.1-2.3-2.3-2.3c-0.7,0-1.2,0.3-1.5,0.8c-0.3,0.5-0.5,1.6-0.5,3.3
				c0,1.4,0.1,2.4,0.2,2.9c0.1,0.5,0.4,0.9,0.7,1.1c0.3,0.2,0.7,0.3,1.1,0.3c0.5,0,1-0.2,1.5-0.6c0.5-0.4,0.8-1,1.1-1.9h0.3
				l-0.1,2.6h-0.3c-0.1-0.3-0.3-0.5-0.5-0.7c-0.7,0.6-1.4,0.8-2.1,0.8c-0.9,0-1.7-0.4-2.5-1.3c-0.8-0.9-1.1-1.9-1.1-3.2
				c0-1.3,0.4-2.4,1.1-3.3c0.7-0.9,1.6-1.3,2.6-1.3c0.7,0,1.4,0.3,2,0.8c0.2-0.3,0.3-0.5,0.4-0.7H153.4z"/>
			<path class="st0" d="M172.9,222.3v3.7h0.8c0.3,0,0.5,0,0.7-0.1c0.2-0.1,0.4-0.2,0.5-0.4c0.2-0.2,0.2-0.6,0.3-1.1h0.3v3.7h-0.3
				c0-0.7-0.2-1.2-0.4-1.4c-0.2-0.2-0.6-0.3-1.1-0.3h-0.8v4h1.8c1,0,1.7-0.2,2.1-0.6c0.4-0.4,0.6-1.1,0.7-1.9h0.3l-0.1,2.9H170v-0.3
				h1.4v-8H170V222h7.4l0.1,2.3h-0.3c-0.1-0.7-0.3-1.2-0.7-1.5c-0.3-0.3-0.9-0.5-1.7-0.5H172.9z"/>
			<path class="st0" d="M214.3,228.2l-0.2,2.4h-4.8v-0.8c0.5-0.6,1.2-1.3,2.2-2.2c1-0.9,1.5-1.9,1.5-3c0-0.6-0.1-1.1-0.4-1.5
				c-0.3-0.4-0.7-0.6-1.2-0.6c-0.4,0-0.8,0.1-1.1,0.4c-0.3,0.3-0.4,0.6-0.4,0.9c0,0.2,0,0.3,0.1,0.3c0,0,0.1,0,0.1,0
				c0.1-0.1,0.3-0.1,0.4-0.1c0.2,0,0.3,0.1,0.4,0.2c0.1,0.1,0.2,0.3,0.2,0.5c0,0.2-0.1,0.3-0.2,0.5c-0.1,0.1-0.3,0.2-0.5,0.2
				c-0.3,0-0.5-0.1-0.7-0.3c-0.2-0.2-0.3-0.5-0.3-0.9c0-0.5,0.2-1,0.6-1.4c0.4-0.4,1-0.6,1.7-0.6c0.7,0,1.2,0.2,1.7,0.6
				c0.5,0.4,0.7,0.9,0.7,1.5c0,0.6-0.2,1.2-0.6,1.7c-0.4,0.5-1.1,1.2-1.9,1.9c-0.8,0.8-1.4,1.3-1.8,1.7h2.9c0.5,0,0.8,0,0.9-0.1
				s0.1-0.3,0.1-0.6l0.1-0.6H214.3z"/>
			<path class="st0" d="M233.3,230.8c-0.7,0-1.4-0.4-1.9-1.3c-0.5-0.9-0.8-1.9-0.8-2.9c0-1.1,0.3-2.2,0.8-3.1
				c0.5-0.9,1.2-1.4,1.9-1.4c0.7,0,1.3,0.5,1.9,1.4c0.5,0.9,0.8,1.9,0.8,3c0,1.1-0.3,2.1-0.8,3C234.6,230.4,234,230.8,233.3,230.8z
				 M234.6,227.4v-2.2c0-1.8-0.4-2.8-1.3-2.8c-0.4,0-0.8,0.2-1,0.6c-0.2,0.4-0.3,1.2-0.3,2.3v2.5c0,1.8,0.4,2.6,1.3,2.6
				c0.4,0,0.8-0.2,1-0.7C234.5,229.4,234.6,228.6,234.6,227.4z"/>
			<path class="st0" d="M255.4,222.1v8.2h1.5v0.3h-4.2v-0.3h1.5v-7.6h-1.5v-0.3h0.2C253.9,222.4,254.7,222.3,255.4,222.1z"/>
			<path class="st0" d="M277.6,222.1v5.9h1.1v-0.9h0.3v2.3h-0.3v-1h-1.1v2h1v0.3h-3.3v-0.3h1.1v-2h-3V228c1.5-2.7,2.7-4.7,3.7-5.9
				H277.6z M276.4,228v-4.5h0c-0.7,1.1-1.6,2.6-2.6,4.5H276.4z"/>
		</g>
	</g>
</g>
</svg>
