<?xml version="1.0" encoding="utf-8"?>
<!-- Generator: Adobe Illustrator 19.2.0, SVG Export Plug-In . SVG Version: 6.00 Build 0)  -->
<svg version="1.1" id="Calque_1" xmlns="http://www.w3.org/2000/svg" xmlns:xlink="http://www.w3.org/1999/xlink" x="0px" y="0px"
	 viewBox="0 0 80.5 89.1" style="enable-background:new 0 0 80.5 89.1;" xml:space="preserve">
<style type="text/css">
	.st0{fill:#009640;stroke:#009640;stroke-width:1.4491;stroke-linecap:round;stroke-linejoin:round;stroke-miterlimit:10;}
	.st1{fill:#009640;}
	.st2{fill:#B2B2B2;}
	.st3{fill:#009640;stroke:#009640;stroke-width:0.9914;stroke-linecap:round;stroke-linejoin:round;stroke-miterlimit:10;}
	.st4{fill:#009640;stroke:#009640;stroke-width:1.1457;stroke-linecap:round;stroke-linejoin:round;stroke-miterlimit:10;}
	.st5{opacity:6.000000e-02;fill:#575756;}
</style>
<g>
	<path class="st0" d="M67,11.1c-0.2-0.6-0.7-2.5-0.6-3.1c0-0.6,0.2-1.1,0.4-1.6c0.2-0.5,0.6-0.9,1-1.3c0.4-0.4,0.9-0.6,1.4-0.8
		c0.5-0.2,1.1-0.2,1.6-0.2c0.5,0.1,1,0.2,1.5,0.5c0.5,0.3,0.9,0.6,1.3,1.1c0.4,0.4,1.1,2.3,1.3,2.9c0,0,0,0.1,0,0.1l1.7-0.5
		c0,0,0-0.1,0-0.1c-0.3-0.8-1.1-2.9-1.6-3.5c-0.5-0.6-1.1-1.1-1.8-1.5c-0.7-0.4-1.4-0.6-2.2-0.7c-0.8-0.1-1.5,0-2.3,0.2
		c-0.8,0.2-1.4,0.6-2,1.1c-0.6,0.5-1,1.1-1.4,1.8c-0.3,0.7-0.5,1.4-0.6,2.2c-0.1,0.8,0.5,3,0.7,3.8c0,0,0,0.1,0.1,0.1l1.7-0.5
		C67,11.2,67,11.1,67,11.1z"/>
	<g>
		<g>
			<path class="st1" d="M28.2,61.2c-3,0-5.4,2.4-5.4,5.4c0,0.7,0.1,1.4,0.4,2c0,0.1,0.1,0.2,0.2,0.4c1.5,3.2,4.8,5.9,4.8,5.9
				s3.4-2.7,4.8-5.9c0.1-0.1,0.1-0.2,0.2-0.4c0.2-0.6,0.4-1.3,0.4-2C33.6,63.6,31.2,61.2,28.2,61.2z M28.2,70.2
				c-1.8,0-3.2-1.4-3.2-3.2s1.4-3.2,3.2-3.2c1.8,0,3.2,1.4,3.2,3.2S30,70.2,28.2,70.2z"/>
		</g>
		<path class="st2" d="M7.7,12.3l1-2C8.9,10,9,9.7,9,9.4C9.1,9.2,9.2,9,9.2,8.8c0-0.2,0.1-0.4,0.1-0.6l0-0.3c0-0.9-0.2-1.7-0.7-2.5
			c-0.4-0.7-1-1.3-1.8-1.7C6.5,3.7,6.3,3.6,6,3.5C5.8,3.4,5.6,3.4,5.4,3.3C5.2,3.3,5,3.3,4.8,3.2c-0.2,0-0.3,0-0.3,0H1.7
			c-0.4,0-0.8,0.2-1.1,0.5C0.3,4,0.1,4.4,0.1,4.8v10.5c0,0.4,0.2,0.8,0.5,1.1c0.6,0.6,1.6,0.6,2.2,0c0.3-0.3,0.5-0.7,0.5-1.1v-2.6
			h0.9l2.2,3.4c0.3,0.5,0.8,0.7,1.4,0.7c0.3,0,0.6-0.1,0.9-0.3C8.8,16.4,9,16.2,9.1,16c0.1-0.2,0.2-0.3,0.2-0.5 M3.3,6.4h1.3
			c0.1,0,0.2,0,0.2,0c0.1,0,0.2,0,0.3,0.1c0.1,0,0.2,0.1,0.3,0.1C5.7,6.8,6.1,7.1,6.1,8c0,0.1,0,0.1,0,0.2C6,8.3,6,8.4,6,8.6
			c0,0.1-0.1,0.2-0.1,0.3C5.7,9.1,5.4,9.5,4.6,9.5H3.3V6.4z M24.9,16.4c0.3-0.3,0.5-0.7,0.5-1.1c0-0.4-0.2-0.8-0.5-1.1
			c-0.3-0.3-0.7-0.5-1.1-0.5h-4.1v-2h3.1c0.4,0,0.8-0.2,1.1-0.5c0.3-0.3,0.5-0.7,0.5-1.1c0-0.4-0.2-0.8-0.5-1.1
			c-0.3-0.3-0.7-0.5-1.1-0.5h-3.1v-2h4.1c0.4,0,0.8-0.2,1.1-0.5c0.3-0.3,0.5-0.7,0.5-1.1c0-0.4-0.2-0.8-0.5-1.1
			c-0.3-0.3-0.7-0.5-1.1-0.5h-5.7c-0.4,0-0.8,0.2-1.1,0.5c-0.3,0.3-0.5,0.7-0.5,1.1v10.5c0,0.4,0.2,0.8,0.5,1.1
			c0.3,0.3,0.7,0.5,1.1,0.5h5.7C24.3,16.9,24.6,16.7,24.9,16.4z M41.2,10.8c-0.2-0.4-0.4-0.7-0.7-1c-0.3-0.3-0.6-0.5-0.9-0.7
			c-0.3-0.2-0.6-0.4-0.9-0.5c-0.3-0.1-0.6-0.3-0.8-0.3c-0.1-0.1-0.3-0.1-0.3-0.1l-0.1,0c-0.2-0.1-0.4-0.2-0.5-0.2
			c-0.1-0.1-0.2-0.1-0.3-0.2c-0.1-0.1-0.1-0.1-0.2-0.2c0,0-0.1-0.1-0.1-0.4c0-0.1,0-0.2,0.2-0.3c0.2-0.1,0.5-0.2,0.9-0.2
			c0.1,0,0.2,0,0.3,0.1c0.1,0,0.2,0.1,0.3,0.2c0.1,0.1,0.3,0.2,0.5,0.2c0.7,0.2,1.4,0,1.7-0.5c0.2-0.2,0.4-0.5,0.4-1
			c0-0.2-0.1-0.5-0.2-0.7c-0.1-0.2-0.2-0.3-0.5-0.6c-0.3-0.2-0.7-0.4-1.1-0.6c-0.4-0.2-0.9-0.3-1.3-0.3h-0.2c-0.5,0-1,0.1-1.5,0.2
			c-0.5,0.2-0.9,0.4-1.3,0.7c-0.5,0.3-0.8,0.7-1.1,1.2c-0.2,0.5-0.4,1-0.4,1.5V7c0,1.3,0.5,3,3.1,3.9l0.2,0.1
			c0.1,0.1,0.3,0.1,0.5,0.2c0.2,0.1,0.5,0.2,0.7,0.4c0.2,0.1,0.4,0.3,0.5,0.4c0.1,0.1,0.1,0.2,0.1,0.3c0,0.3-0.1,0.6-0.4,0.9
			c-0.3,0.3-0.7,0.4-1.2,0.4c-0.3,0-0.5-0.1-0.7-0.2c-0.2-0.1-0.3-0.3-0.4-0.5c-0.1-0.3-0.3-0.6-0.6-0.7c-0.5-0.3-1.2-0.3-1.5-0.1
			c-0.3,0.1-0.6,0.4-0.7,0.6c-0.1,0.3-0.2,0.5-0.2,0.8c0,0.3,0,0.5,0.1,0.7c0.4,0.8,0.9,1.4,1.6,1.8c0.7,0.5,1.5,0.7,2.4,0.7h0.1
			c0.7,0,1.3-0.1,1.9-0.4c0.6-0.2,1.1-0.6,1.6-1c0.4-0.4,0.7-0.9,0.9-1.4c0.2-0.5,0.3-1.1,0.3-1.7l0-0.3
			C41.6,11.6,41.4,11.2,41.2,10.8z M55.8,3.2h-6.3c-0.4,0-0.8,0.2-1.1,0.5c-0.3,0.3-0.5,0.7-0.5,1.1c0,0.4,0.2,0.8,0.5,1.1
			c0.3,0.3,0.7,0.5,1.1,0.5h1.6v8.9c0,0.4,0.2,0.8,0.5,1.1c0.3,0.3,0.7,0.5,1.1,0.5c0.4,0,0.8-0.2,1.1-0.5c0.3-0.3,0.5-0.7,0.5-1.1
			V6.4h1.5c0.4,0,0.8-0.2,1.1-0.5c0.3-0.3,0.5-0.7,0.5-1.1c0-0.4-0.2-0.8-0.5-1.1C56.6,3.4,56.2,3.2,55.8,3.2z M2.1,43.8
			c0.6,0.6,1.3,1.1,2.2,1.5c0.8,0.4,1.7,0.5,2.7,0.5c0.5,0,1.1-0.1,1.7-0.2c0.5-0.1,1.1-0.3,1.6-0.6c0.3-0.2,0.6-0.5,0.7-0.9
			c0.1-0.4,0.1-0.9-0.1-1.2c-0.1-0.3-0.4-0.5-0.6-0.7c-0.5-0.3-1-0.3-1.6,0c-0.2,0.1-0.5,0.2-0.8,0.3c-0.8,0.2-1.6,0.1-2.3-0.2
			c-0.4-0.2-0.8-0.4-1.2-0.8c-0.3-0.3-0.6-0.7-0.8-1.2C3.4,40,3.3,39.5,3.3,39s0.1-1,0.3-1.4c0.2-0.4,0.5-0.8,0.8-1.2
			c0.3-0.3,0.7-0.6,1.2-0.8c0.7-0.3,1.5-0.4,2.3-0.2c0.3,0.1,0.6,0.2,0.9,0.4c0.1,0,0.2,0.1,0.3,0.1c0.5,0.1,0.8,0.1,1.2-0.1
			c0.3-0.1,0.5-0.4,0.6-0.6c0.2-0.4,0.3-0.8,0.1-1.2c-0.1-0.4-0.4-0.7-0.8-1c-0.5-0.2-1-0.4-1.5-0.6c-1.5-0.4-3-0.3-4.3,0.3
			c-0.8,0.4-1.6,0.8-2.2,1.5c-0.6,0.6-1.1,1.3-1.5,2.2c-0.4,0.8-0.5,1.7-0.5,2.6c0,0.9,0.2,1.8,0.5,2.7C1,42.5,1.5,43.2,2.1,43.8z
			 M30.6,32.7c-0.3,0.3-0.5,0.7-0.5,1.1v3.7h-3.6v-3.7c0-0.4-0.2-0.8-0.5-1.1c-0.6-0.6-1.6-0.6-2.2,0c-0.3,0.3-0.5,0.7-0.5,1.1v10.5
			c0,0.4,0.2,0.8,0.5,1.1c0.6,0.6,1.6,0.6,2.2,0c0.3-0.3,0.5-0.7,0.5-1.1v-3.7h3.6v3.7c0,0.4,0.2,0.8,0.5,1.1
			c0.3,0.3,0.7,0.5,1.1,0.5c0.4,0,0.8-0.2,1.1-0.5c0.3-0.3,0.5-0.7,0.5-1.1V33.8c0-0.4-0.2-0.8-0.5-1.1
			C32.2,32.1,31.2,32.1,30.6,32.7z M47.2,45.8h5.7c0.4,0,0.8-0.2,1.1-0.5c0.3-0.3,0.5-0.7,0.5-1.1c0-0.4-0.2-0.8-0.5-1.1
			c-0.3-0.3-0.7-0.5-1.1-0.5h-4.1v-2h3.1c0.4,0,0.8-0.2,1.1-0.5c0.3-0.3,0.5-0.7,0.5-1.1c0-0.4-0.2-0.8-0.5-1.1
			c-0.3-0.3-0.7-0.5-1.1-0.5h-3.1v-2h4.1c0.4,0,0.8-0.2,1.1-0.5c0.3-0.3,0.5-0.7,0.5-1.1c0-0.4-0.2-0.8-0.5-1.1
			c-0.3-0.3-0.7-0.5-1.1-0.5h-5.7c-0.4,0-0.8,0.2-1.1,0.5c-0.3,0.3-0.5,0.7-0.5,1.1v10.5c0,0.4,0.2,0.8,0.5,1.1S46.8,45.8,47.2,45.8
			z M74.7,45.8c0.4,0,0.8-0.2,1.1-0.5c0.3-0.3,0.5-0.7,0.5-1.1c0-0.4-0.2-0.8-0.5-1.1c-0.3-0.3-0.7-0.5-1.1-0.5h-3.5l4.8-8
			c0.2-0.3,0.3-0.6,0.3-0.9c0-0.4-0.2-0.8-0.5-1.1c-0.3-0.3-0.7-0.5-1.1-0.5h-6.3c-0.4,0-0.8,0.2-1.1,0.5c-0.3,0.3-0.5,0.7-0.5,1.1
			c0,0.4,0.2,0.8,0.5,1.1c0.3,0.3,0.7,0.5,1.1,0.5h3.5l-4.8,8c-0.1,0.1-0.2,0.3-0.2,0.5c0,0.1,0,0.2,0,0.3c0,0.4,0.2,0.8,0.5,1.1
			c0.3,0.3,0.7,0.5,1.1,0.5H74.7z M9.2,61.5c-0.3,0.2-0.5,0.4-0.6,0.7L5.9,69l-2.7-6.7c-0.1-0.3-0.3-0.6-0.6-0.8
			c-0.7-0.4-1.6-0.3-2,0.3c-0.3,0.3-0.4,0.7-0.4,1.1c0,0.2,0,0.4,0.1,0.6l4.2,10.5c0.1,0.2,0.3,0.5,0.5,0.6c0.3,0.2,0.6,0.3,0.9,0.3
			c0.3,0,0.6-0.1,0.9-0.3c0.2-0.2,0.4-0.4,0.6-0.7c0.7-1.7,1.4-3.4,2.1-5.2c0.7-1.8,1.4-3.5,2.1-5.2c0.1-0.2,0.1-0.4,0.1-0.6
			c0-0.4-0.1-0.7-0.4-1C10.7,61.2,9.8,61,9.2,61.5z M53.3,61.7c-0.3,0.3-0.5,0.7-0.5,1.1v6.8c0,0.1,0,0.2-0.1,0.5
			c0,0.2-0.1,0.5-0.3,0.7c-0.1,0.2-0.3,0.4-0.6,0.6c-0.3,0.3-1.2,0.3-1.6,0.1c-0.2-0.1-0.3-0.2-0.5-0.3c-0.1-0.1-0.2-0.3-0.3-0.5
			c-0.1-0.2-0.2-0.4-0.2-0.5c0-0.2-0.1-0.3-0.1-0.4c0-0.1,0-0.2,0-0.2v-6.8c0-0.4-0.2-0.8-0.5-1.1c-0.6-0.6-1.6-0.6-2.2,0
			C46.2,62,46,62.3,46,62.8v6.8l0,0.3c0,0.2,0,0.4,0.1,0.6c0,0.2,0.1,0.5,0.2,0.7c0.1,0.3,0.2,0.6,0.3,0.9c0.4,0.9,1,1.6,1.8,2
			c0.8,0.5,1.6,0.7,2.6,0.7c1,0,1.9-0.2,2.6-0.7c0.8-0.5,1.4-1.2,1.8-2.1c0.1-0.3,0.2-0.6,0.3-0.9c0.1-0.3,0.1-0.5,0.2-0.8
			c0-0.2,0.1-0.4,0.1-0.6l0-7.1c0-0.4-0.2-0.8-0.5-1.1C54.9,61.1,53.9,61,53.3,61.7z M75.9,68.7c-0.2-0.4-0.4-0.7-0.7-1
			c-0.3-0.3-0.6-0.5-0.9-0.7c-0.3-0.2-0.6-0.4-0.9-0.5c-0.3-0.1-0.6-0.3-0.8-0.3c-0.1-0.1-0.3-0.1-0.3-0.1l-0.1,0
			c-0.2-0.1-0.4-0.2-0.5-0.2c-0.1-0.1-0.2-0.1-0.3-0.2c-0.1-0.1-0.1-0.1-0.2-0.2c0,0-0.1-0.1-0.1-0.4c0-0.1,0-0.2,0.2-0.3
			c0.2-0.1,0.5-0.2,0.9-0.2c0.1,0,0.2,0,0.3,0.1c0.1,0,0.2,0.1,0.3,0.2c0.1,0.1,0.3,0.2,0.5,0.2c0.7,0.2,1.4,0,1.7-0.5
			c0.2-0.2,0.4-0.5,0.4-1c0-0.2-0.1-0.5-0.2-0.7c-0.1-0.2-0.2-0.3-0.5-0.6c-0.3-0.2-0.7-0.4-1.1-0.6c-0.4-0.2-0.9-0.3-1.3-0.3h-0.2
			c-0.5,0-1,0.1-1.5,0.2c-0.5,0.2-0.9,0.4-1.3,0.7c-0.5,0.3-0.8,0.7-1.1,1.2c-0.2,0.5-0.4,1-0.4,1.5l0,0.2c0,1.3,0.5,3,3.1,3.9
			l0.2,0.1c0.1,0.1,0.3,0.1,0.5,0.2c0.2,0.1,0.5,0.2,0.7,0.4c0.2,0.1,0.4,0.3,0.5,0.4c0.1,0.1,0.1,0.2,0.1,0.3
			c0,0.3-0.1,0.6-0.4,0.9c-0.3,0.3-0.7,0.4-1.2,0.4c-0.3,0-0.5-0.1-0.7-0.2c-0.2-0.1-0.3-0.3-0.4-0.5c-0.1-0.3-0.3-0.6-0.6-0.7
			c-0.5-0.3-1.2-0.3-1.5-0.1c-0.3,0.1-0.6,0.4-0.7,0.6c-0.1,0.3-0.2,0.5-0.2,0.8c0,0.3,0,0.5,0.1,0.7c0.4,0.8,0.9,1.4,1.6,1.8
			c0.7,0.5,1.5,0.7,2.4,0.7h0.1c0.7,0,1.3-0.1,1.9-0.4c0.6-0.2,1.1-0.6,1.6-1c0.4-0.4,0.7-0.9,0.9-1.4c0.2-0.5,0.3-1.1,0.3-1.7
			l0-0.3C76.3,69.6,76.1,69.1,75.9,68.7z"/>
	</g>
	
		<ellipse transform="matrix(1 -1.847837e-03 1.847837e-03 1 -2.249985e-03 0.1254)" class="st3" cx="67.9" cy="1.3" rx="0.8" ry="0.8"/>
	<path class="st4" d="M79.9,15.7c0,0.5-0.3,0.9-0.7,0.9H63.1c-0.4,0-0.7-0.4-0.7-0.9l0,0c0-0.5,0.3-0.9,0.7-0.9h16.1
		C79.6,14.8,79.9,15.2,79.9,15.7L79.9,15.7z"/>
	<ellipse class="st5" cx="38.2" cy="87.1" rx="38.2" ry="2"/>
</g>
</svg>
