<?xml version="1.0" encoding="utf-8"?>
<!-- Generator: Adobe Illustrator 19.2.0, SVG Export Plug-In . SVG Version: 6.00 Build 0)  -->
<svg version="1.1" id="Calque_1" xmlns="http://www.w3.org/2000/svg" xmlns:xlink="http://www.w3.org/1999/xlink" x="0px" y="0px"
	 viewBox="0 0 220.7 220.7" style="enable-background:new 0 0 220.7 220.7;" xml:space="preserve">
<style type="text/css">
	.st0{fill:#2F3439;}
</style>
<g>
	<g>
		<g>
			<path class="st0" d="M121.3,66.8c0,0-0.5,0.3-0.6,0.3c-0.1,0-0.7,0.1-0.7,0.1s-1.9-1-2.5-1.1c-0.6-0.1-3.6,0.8-4,0.8
				c-0.5,0-2.6,0.5-2.9,0.5c-0.3,0.1-0.1,1.6,0,1.6c0.1,0,1.4-0.4,1.8-0.6c0.4-0.2,2.2,0,2.5,0c0.3,0,3.3,0.8,3.4,0.8
				c0.1,0,2.3,0.1,2.3,0.1l0.6-1.3c0,0,0.4-0.9,0.4-1C121.5,66.9,121.3,66.8,121.3,66.8z"/>
			<path class="st0" d="M125,68.3l-1.3-0.7l-1.1-0.1l-0.1,1.6l0.4,0.6c0,0,1.8,0,2,0.1c0.1,0.1,1.1,0.9,1.1,0.9l0.8,0.8l-0.3-1.2
				c0,0,0-0.5-0.5-0.9C125.6,69.1,125,68.3,125,68.3z"/>
			<path class="st0" d="M165.8,91.2c-11.8-6.2-25-8.9-38.5-8c0-0.4-0.1-0.7-0.1-1.1c-0.3-1.2-1.6-2.8-4.1-2.8
				c-0.7,0-0.9,0.4-0.9,0.4s-0.1-0.3-1.3-0.5c-2.9-0.2-11,4.2-13.5,2.7c-2.5-1.5-3.1-4.7-3.3-9.9c-0.3-5.2-0.8-2.4,2.3-7.7
				c0,0,0,0,0.1-0.1c2.4-0.6,4-1.1,4-1.1s1.4-0.5,3.5-1.4c4,0.2,8.3,1.3,9.8,0.3c1.7-1.2,5.7-4.8,2.1-6.1c4-2.5,7.5-5.4,8.4-8.3
				c2.3-7.9-7.7-5.8-15.6-1.6c-3.6-8-11.3-16.8-16.2-15.5c-5,1.3-7.5,12.7-6.5,21.4c-9.6-0.1-20.7,0.9-13.7,9.5
				c2.3,2.8,6,3.9,10,4.2c0,0.1,0,0.1,0,0.2c0.2,5.7,3.1,9.8,3.1,9.8s-3.3-9.6,2.1-9.6c5.4-0.1,3.7,10.7,3.6,12.2
				c-0.1,1.5-1.1,3-1.1,5.5c0.3,10.3,16.4,10.8,19.9,10.6c3.5-0.2,5.3-3,6-4.2c0.8-1.3,1.1-2.6,1.2-4.3c0.1-0.9,0.1-1.5,0.1-2.1
				c13.4-1,26.6,1.7,38.3,7.9c0,0,0.1,0,0.1,0c0.1,0,0.2-0.1,0.2-0.2C166,91.5,165.9,91.3,165.8,91.2z M122.9,84.3
				c0.9-0.1,1.8-0.2,2.7-0.3c0,0.2-0.1,0.4-0.2,0.7c0,0-6.7,1.3-10.3-1c0,0,10.1-3.3,10.5-0.3c-0.9,0.1-1.9,0.2-2.8,0.3
				c-0.2,0-0.3,0.2-0.2,0.3C122.6,84.2,122.7,84.3,122.9,84.3z"/>
		</g>
		<g>
			<g>
				<polygon class="st0" points="161.2,89 162.8,88.1 163.4,88.3 161.8,89.2 				"/>
				<polygon class="st0" points="161.1,89.3 161.5,91.2 162.1,91.4 161.6,89.6 				"/>
				<polygon class="st0" points="162.3,89.4 163.9,88.5 164.4,88.7 162.8,89.7 				"/>
				<polygon class="st0" points="162.1,89.8 162.6,91.6 163.1,91.8 162.7,90 				"/>
				<polygon class="st0" points="163.3,89.9 164.9,88.9 165.5,89.2 163.8,90.1 				"/>
				<polygon class="st0" points="163.1,90.2 163.6,92 164.1,92.3 163.7,90.5 				"/>
				<polygon class="st0" points="164.3,90.3 165.9,89.4 166.5,89.6 164.9,90.6 				"/>
				<polygon class="st0" points="164.2,90.7 164.6,92.5 165.2,92.7 164.7,90.9 				"/>
			</g>
			<polygon class="st0" points="165,90.8 166.8,89.8 167.8,92 165.5,92.8 			"/>
		</g>
	</g>
	<g>
		<path class="st0" d="M58,130.7v-20.3h1.3v19.1h6.4v1.2H58z"/>
		<path class="st0" d="M74.6,119.7v1.2h-5.5v8.5h6.7v1.2h-8v-20.3h8v1.2h-6.7v8.2H74.6z"/>
		<path class="st0" d="M91.9,115.4v2.6c0,3.2-1.6,5-4.8,5h-1.5v7.6h-3.2v-20.3h4.7C90.3,110.4,91.9,112.1,91.9,115.4z M85.6,113.3
			v6.9h1.5c1,0,1.6-0.5,1.6-1.9v-3c0-1.5-0.6-1.9-1.6-1.9H85.6z"/>
		<path class="st0" d="M100,130.7c-0.2-0.5-0.3-0.8-0.3-2.5V125c0-1.9-0.6-2.6-2.1-2.6h-1.1v8.3h-3.2v-20.3h4.8
			c3.3,0,4.7,1.5,4.7,4.7v1.6c0,2.1-0.7,3.5-2.1,4.1c1.6,0.7,2.1,2.2,2.1,4.3v3.1c0,1,0,1.7,0.3,2.5H100z M96.5,113.3v6.2h1.2
			c1.2,0,1.9-0.5,1.9-2.1v-2c0-1.5-0.5-2.1-1.6-2.1H96.5z"/>
		<path class="st0" d="M104.7,115.2c0-3.2,1.7-5.1,4.8-5.1c3.1,0,4.8,1.9,4.8,5.1v10.6c0,3.2-1.7,5.1-4.8,5.1
			c-3.1,0-4.8-1.9-4.8-5.1V115.2z M107.9,126c0,1.5,0.6,2,1.7,2c1,0,1.7-0.6,1.7-2v-11c0-1.5-0.6-2-1.7-2c-1,0-1.7,0.6-1.7,2V126z"
			/>
		<path class="st0" d="M121.3,126.9l2.4-16.6h2.9l-3.1,20.3h-4.8l-3.1-20.3h3.2L121.3,126.9z"/>
		<path class="st0" d="M128.1,110.4h3.2v20.3h-3.2V110.4z"/>
		<path class="st0" d="M136.5,115.9v14.7h-2.9v-20.3h4l3.3,12.2v-12.2h2.8v20.3h-3.3L136.5,115.9z"/>
		<path class="st0" d="M155.3,123.1v2.7c0,3.2-1.6,5.1-4.8,5.1c-3.1,0-4.8-1.9-4.8-5.1v-10.6c0-3.2,1.6-5.1,4.8-5.1
			c3.1,0,4.8,1.9,4.8,5.1v2h-3V115c0-1.5-0.6-2-1.7-2s-1.7,0.6-1.7,2v11c0,1.5,0.6,2,1.7,2s1.7-0.5,1.7-2v-2.9H155.3z"/>
		<path class="st0" d="M160.4,118.9h4.4v2.9h-4.4v5.9h5.5v2.9h-8.7v-20.3h8.7v2.9h-5.5V118.9z"/>
	</g>
	<g>
		<path class="st0" d="M72.8,153.4c0-1.2,1.4-1.6,2.5-1.6c1.9,0,3.2,0.8,3.2,2.2c0,1.5-1.5,1.9-3,2.1c-0.4,0.1-1.2,0.2-1.4,0.3
			c0.8-0.2,2.5,0.3,3,0.3c0.3,0,1.1-0.1,1.1-0.6c0-0.1,0.1-0.2,0.2-0.2c0.1,0,0.1,0,0.2,0.1c0.2,0.3,0.4,0.9,0.4,1.2
			c0,1-0.8,1.9-1.8,1.9c-1.8,0-2.6-1.4-3.6-1.4c-0.3,0-0.5,0.2-0.5,0.9c0,0.2-0.1,0.2-0.2,0.2c-0.1,0-0.2-0.1-0.2-0.2
			c0-0.4,0.1-1.1,0.2-1.4c0.6-2,3-1.4,3.1-3.4c0-0.7-0.6-1.6-1.3-1.6c-0.2,0-0.5,0.1-0.6,0.1c0.7,0,1.3,0.4,1.3,1.1
			c0,0.7-0.4,1.1-1.2,1.1C73.2,154.5,72.8,154,72.8,153.4z M77.1,158.6c0.9,0,1.4-0.8,1.4-1.5c0-0.2,0-0.5-0.1-0.7
			c-0.1,0.4-0.6,0.6-1.3,0.6c-0.9,0-1.8-0.5-2.7-0.5c-0.6,0-1.3,0.2-1.4,0.9c0.1-0.1,0.3-0.2,0.5-0.2
			C74.7,157.2,75.4,158.6,77.1,158.6z M73.2,153.4c0,0.5,0.3,0.8,0.8,0.8c0.5,0,0.8-0.2,0.8-0.7c0-0.5-0.3-0.7-0.8-0.7
			C73.5,152.7,73.2,153,73.2,153.4z M74.5,153.2C74.5,153.2,74.6,153.3,74.5,153.2c0.1,0.1,0,0.1,0,0.1h-0.5c-0.3,0-0.4,0-0.5,0
			c-0.1,0-0.1,0-0.1-0.1c0,0,0-0.1,0.1-0.1c0.1,0,0.2,0,0.5,0H74.5z M74.5,153.5C74.5,153.5,74.5,153.6,74.5,153.5
			c0.1,0.1,0,0.1,0,0.1h-0.5c-0.2,0-0.3,0-0.4,0c-0.1,0-0.2,0-0.2-0.1c0-0.1,0-0.1,0.2-0.1c0.1,0,0.2,0,0.4,0H74.5z M76.1,153.7
			c0,0.9-0.4,1.4-1.1,1.8c-0.7,0.3-1,0.4-1.5,0.8c0.5-0.4,1.5-0.6,2.1-0.7c1.5-0.2,2.5-0.7,2.5-1.7c0-1.4-1.5-1.9-3-1.9
			C75.7,152.3,76.1,153.1,76.1,153.7z M74.4,152.9C74.4,152.9,74.4,153,74.4,152.9c0.1,0.1,0,0.1,0,0.1H74c-0.2,0-0.3,0-0.4,0
			c-0.1,0-0.1,0-0.1-0.1c0,0,0-0.1,0.1-0.1c0.1,0,0.2,0,0.4,0H74.4z M75.4,156.8C75.4,156.8,75.4,156.9,75.4,156.8
			c0.1,0.1,0,0.1,0,0.1h-1.2c-0.3,0-0.4,0-0.5,0c-0.1,0-0.1,0-0.1-0.1s0-0.1,0.1-0.1c0.1,0,0.2,0,0.5,0H75.4z M74.3,153.9
			C74.3,153.9,74.3,154,74.3,153.9c-0.3,0.1-0.4,0.1-0.5,0.1c-0.1,0-0.2,0-0.2-0.1c0,0,0-0.1,0.2-0.1
			C73.9,153.8,74,153.8,74.3,153.9C74.3,153.8,74.3,153.9,74.3,153.9z M78.3,157.1C78.3,157.1,78.4,157.2,78.3,157.1
			c0.1,0.1,0,0.1,0,0.1h-3.5c-0.3,0-0.4,0-0.5,0c-0.1,0-0.1,0-0.1-0.1c0-0.1,0-0.1,0.1-0.1c0.1,0,0.2,0,0.5,0H78.3z M78.2,157.4
			C78.3,157.4,78.3,157.5,78.2,157.4c0.1,0.1,0,0.1,0,0.1h-2.9c-0.3,0-0.4,0-0.5,0c-0.1,0-0.2,0-0.2-0.1c0,0,0-0.1,0.2-0.1
			c0.1,0,0.2,0,0.5,0H78.2z M78.1,157.7C78.1,157.7,78.2,157.8,78.1,157.7c0.1,0.1,0,0.1,0,0.1h-2.2c-0.3,0-0.4,0-0.5,0
			c-0.1,0-0.2,0-0.2-0.1c0-0.1,0-0.1,0.2-0.1c0.1,0,0.2,0,0.5,0H78.1z M76.2,155.4C76.2,155.4,76.2,155.4,76.2,155.4
			c-0.3,0.1-0.4,0.1-0.5,0.1c-0.1,0-0.1,0-0.1-0.1c0,0,0-0.1,0.1-0.1C75.8,155.3,75.9,155.3,76.2,155.4
			C76.2,155.3,76.2,155.3,76.2,155.4z M77.9,158C77.9,158,78,158.1,77.9,158c0.1,0.1,0,0.1,0,0.1h-1.5c-0.3,0-0.4,0-0.5,0
			c-0.1,0-0.1,0-0.1-0.1c0,0,0-0.1,0.1-0.1c0.1,0,0.2,0,0.5,0H77.9z M76.5,152.3C76.6,152.3,76.6,152.4,76.5,152.3
			c0.1,0.1,0,0.1,0,0.1h-0.1c-0.3,0-0.4,0-0.5,0c-0.1,0-0.2,0-0.2-0.1s0-0.1,0.2-0.1C76.1,152.3,76.2,152.3,76.5,152.3L76.5,152.3z
			 M77,155C77,155,77.1,155.1,77,155c0.1,0.1,0,0.1,0,0.1h-0.5c-0.3,0-0.4,0-0.5,0c-0.1,0-0.1,0-0.1-0.1c0,0,0-0.1,0.1-0.1
			c0.1,0,0.2,0,0.5,0H77z M77.2,152.6C77.3,152.6,77.3,152.7,77.2,152.6c0.1,0.1,0,0.1,0,0.1h-0.6c-0.3,0-0.4,0-0.5,0
			c-0.1,0-0.2,0-0.2-0.1c0,0,0-0.1,0.2-0.1c0.1,0,0.2,0,0.5,0H77.2z M77.5,154.7C77.6,154.7,77.6,154.8,77.5,154.7
			c0.1,0.1,0,0.1,0,0.1h-0.8c-0.3,0-0.4,0-0.5,0c-0.1,0-0.2,0-0.2-0.1c0-0.1,0-0.1,0.2-0.1c0.1,0,0.2,0,0.5,0H77.5z M77.6,152.9
			C77.6,152.9,77.7,153,77.6,152.9c0.1,0.1,0,0.1,0,0.1h-0.8c-0.3,0-0.4,0-0.5,0c-0.1,0-0.1,0-0.1-0.1c0,0,0-0.1,0.1-0.1
			c0.1,0,0.2,0,0.5,0H77.6z M77.8,154.4C77.8,154.4,77.8,154.5,77.8,154.4c0.1,0.1,0,0.1,0,0.1h-0.9c-0.3,0-0.4,0-0.5,0
			c-0.1,0-0.2,0-0.2-0.1c0,0,0-0.1,0.2-0.1c0.1,0,0.2,0,0.5,0H77.8z M77.8,153.2C77.8,153.2,77.8,153.3,77.8,153.2
			c0.1,0.1,0,0.1,0,0.1h-0.9c-0.3,0-0.4,0-0.5,0c-0.1,0-0.1,0-0.1-0.1c0,0,0-0.1,0.1-0.1c0.1,0,0.2,0,0.5,0H77.8z M77.9,154.1
			C77.9,154.1,77.9,154.2,77.9,154.1c0.1,0.1,0,0.1,0,0.1h-1c-0.3,0-0.4,0-0.5,0c-0.1,0-0.2,0-0.2-0.1c0-0.1,0-0.1,0.2-0.1
			c0.1,0,0.2,0,0.5,0H77.9z M77.9,153.5C77.9,153.5,77.9,153.6,77.9,153.5c0.1,0.1,0,0.1,0,0.1h-1c-0.3,0-0.4,0-0.5,0
			c-0.1,0-0.1,0-0.1-0.1c0-0.1,0-0.1,0.1-0.1c0.1,0,0.2,0,0.5,0H77.9z M77.9,153.8C77.9,153.8,78,153.9,77.9,153.8
			c0.1,0.1,0,0.1,0,0.1h-1c-0.3,0-0.4,0-0.5,0c-0.1,0-0.1,0-0.1-0.1c0,0,0-0.1,0.1-0.1c0.1,0,0.2,0,0.5,0H77.9z M77.4,158.3
			C77.4,158.3,77.5,158.3,77.4,158.3c0.1,0.1,0,0.1,0,0.1h-0.1c-0.3,0-0.4,0-0.5,0c-0.1,0-0.1,0-0.1-0.1c0-0.1,0-0.1,0.1-0.1
			c0.1,0,0.2,0,0.5,0H77.4z M78.3,156.8C78.3,156.8,78.3,156.9,78.3,156.8c0.1,0.1,0,0.1,0,0.1C78.2,157,78.2,156.9,78.3,156.8
			C78.2,156.9,78.2,156.8,78.3,156.8z"/>
		<path class="st0" d="M94.2,155.3c0-2.4,1.4-3.6,3.7-3.6c2.3,0,3.7,1.4,3.7,3.6c0,2.2-1.4,3.6-3.6,3.6
			C95.5,158.8,94.2,157.5,94.2,155.3z M97.3,158.4c-0.4-0.6-0.6-1.7-0.6-3.1c0-1.6,0.2-2.6,0.5-3.2c-1.2,0.2-2.6,0.8-2.6,3.2
			C94.6,157.5,95.9,158.2,97.3,158.4z M96.5,155.3C96.5,155.3,96.5,155.4,96.5,155.3c0.1,0.1,0,0.1,0,0.1h-1.1c-0.3,0-0.4,0-0.5,0
			c-0.1,0-0.1,0-0.1-0.1c0-0.1,0-0.1,0.1-0.1c0.1,0,0.2,0,0.5,0H96.5z M96.5,155.6C96.5,155.6,96.6,155.7,96.5,155.6
			c0.1,0.1,0,0.1,0,0.1h-1.1c-0.3,0-0.4,0-0.5,0c-0.1,0-0.1,0-0.1-0.1c0,0,0-0.1,0.1-0.1c0.1,0,0.2,0,0.5,0H96.5z M96.5,155
			C96.5,155,96.5,155.1,96.5,155c0.1,0.1,0,0.1,0,0.1h-1.1c-0.3,0-0.4,0-0.5,0c-0.1,0-0.1,0-0.1-0.1c0,0,0-0.1,0.1-0.1
			c0.1,0,0.2,0,0.5,0H96.5z M96.5,154.7C96.5,154.7,96.5,154.8,96.5,154.7c0.1,0.1,0,0.1,0,0.1h-1.1c-0.3,0-0.4,0-0.5,0
			c-0.1,0-0.2,0-0.2-0.1c0-0.1,0-0.1,0.2-0.1c0.1,0,0.2,0,0.5,0H96.5z M96.5,155.9C96.5,155.9,96.6,156,96.5,155.9
			c0.1,0.1,0,0.1,0,0.1h-1.1c-0.3,0-0.4,0-0.5,0c-0.1,0-0.2,0-0.2-0.1c0-0.1,0-0.1,0.2-0.1c0.1,0,0.2,0,0.5,0H96.5z M96.5,154.4
			C96.5,154.4,96.5,154.5,96.5,154.4c0.1,0.1,0,0.1,0,0.1h-1c-0.3,0-0.4,0-0.5,0c-0.1,0-0.1,0-0.1-0.1c0,0,0-0.1,0.1-0.1
			c0.1,0,0.2,0,0.5,0H96.5z M96.5,156.2C96.6,156.2,96.6,156.3,96.5,156.2c0.1,0.1,0,0.1,0,0.1h-1.1c-0.3,0-0.4,0-0.5,0
			c-0.1,0-0.1,0-0.1-0.1c0,0,0-0.1,0.1-0.1c0.1,0,0.2,0,0.5,0H96.5z M96.5,154.1C96.5,154.1,96.6,154.2,96.5,154.1
			c0.1,0.1,0,0.1,0,0.1h-1c-0.3,0-0.4,0-0.5,0c-0.1,0-0.2,0-0.2-0.1c0-0.1,0-0.1,0.2-0.1c0.1,0,0.2,0,0.5,0H96.5z M96.5,153.8
			C96.6,153.8,96.6,153.9,96.5,153.8c0.1,0.1,0,0.1,0,0.1h-1c-0.3,0-0.4,0-0.5,0c-0.1,0-0.2,0-0.2-0.1c0,0,0-0.1,0.2-0.1
			c0.1,0,0.2,0,0.5,0H96.5z M96.6,156.5C96.6,156.5,96.6,156.6,96.6,156.5c0.1,0.1,0,0.1,0,0.1h-1c-0.3,0-0.4,0-0.5,0
			c-0.1,0-0.2,0-0.2-0.1c0-0.1,0-0.1,0.2-0.1c0.1,0,0.2,0,0.5,0H96.6z M96.6,156.8C96.6,156.8,96.7,156.9,96.6,156.8
			c0.1,0.1,0,0.1,0,0.1h-0.9c-0.3,0-0.4,0-0.5,0c-0.1,0-0.1,0-0.1-0.1c0,0,0-0.1,0.1-0.1c0.1,0,0.2,0,0.5,0H96.6z M96.6,153.5
			C96.6,153.5,96.6,153.6,96.6,153.5c0.1,0.1,0,0.1,0,0.1h-0.9c-0.3,0-0.4,0-0.5,0c-0.1,0-0.2,0-0.2-0.1c0-0.1,0-0.1,0.2-0.1
			c0.1,0,0.2,0,0.5,0H96.6z M96.6,157.1C96.7,157.1,96.7,157.2,96.6,157.1c0.1,0.1,0,0.1,0,0.1h-0.8c-0.3,0-0.4,0-0.5,0
			c-0.1,0-0.2,0-0.2-0.1c0-0.1,0-0.1,0.2-0.1c0.1,0,0.2,0,0.5,0H96.6z M96.6,153.2C96.7,153.2,96.7,153.3,96.6,153.2
			c0.1,0.1,0,0.1,0,0.1h-0.7c-0.3,0-0.4,0-0.5,0c-0.1,0-0.2,0-0.2-0.1c0,0,0-0.1,0.2-0.1c0.1,0,0.2,0,0.5,0H96.6z M96.7,157.4
			C96.8,157.4,96.8,157.5,96.7,157.4c0.1,0.1,0,0.1,0,0.1h-0.6c-0.3,0-0.4,0-0.5,0c-0.1,0-0.2,0-0.2-0.1c0,0,0-0.1,0.2-0.1
			c0.1,0,0.2,0,0.5,0H96.7z M96.7,152.9C96.7,152.9,96.8,153,96.7,152.9c0.1,0.1,0,0.1,0,0.1h-0.5c-0.3,0-0.4,0-0.5,0
			c-0.1,0-0.2,0-0.2-0.1c0,0,0-0.1,0.2-0.1c0.1,0,0.2,0,0.5,0H96.7z M96.8,157.7C96.8,157.7,96.9,157.8,96.8,157.7
			c0.1,0.1,0,0.1,0,0.1h-0.3c-0.3,0-0.4,0-0.5,0c-0.1,0-0.1,0-0.1-0.1c0-0.1,0-0.1,0.1-0.1c0.1,0,0.2,0,0.5,0H96.8z M96.8,152.6
			C96.8,152.6,96.8,152.7,96.8,152.6c0.1,0.1,0,0.1,0,0.1h-0.2c-0.3,0-0.4,0-0.5,0c-0.1,0-0.1,0-0.1-0.1c0,0,0-0.1,0.1-0.1
			c0.1,0,0.2,0,0.5,0H96.8z M96.9,152.4C96.9,152.4,96.9,152.5,96.9,152.4c-0.1,0.1-0.2,0.1-0.3,0.1c-0.1,0-0.1,0-0.1-0.1
			c0-0.1,0-0.1,0.1-0.1C96.7,152.3,96.8,152.3,96.9,152.4C96.9,152.3,96.9,152.4,96.9,152.4z M97,158.1C97,158.1,97,158.2,97,158.1
			c-0.1,0.1-0.2,0.1-0.3,0.1c-0.1,0-0.1,0-0.1-0.1c0,0,0-0.1,0.1-0.1C96.8,158,97,158,97,158.1C97,158,97,158.1,97,158.1z
			 M97.8,152.1c-0.3,0-0.7,0.7-0.7,3.2c0,2.8,0.7,3.1,0.9,3.1c0.3,0,0.7-1.2,0.7-3C98.6,152.5,98,152.1,97.8,152.1z M98.4,152.1
			c0.4,0.6,0.6,1.8,0.6,3.3c0,1.6-0.2,2.5-0.5,3c1.6-0.2,2.6-1.3,2.6-3.1C101.1,153.5,100.1,152.3,98.4,152.1z M99.2,152.4
			C99.2,152.4,99.1,152.5,99.2,152.4c-0.2,0.1-0.2,0.1-0.3,0.1c-0.1,0-0.1,0-0.1-0.1c0-0.1,0-0.1,0.1-0.1
			C98.9,152.3,99,152.3,99.2,152.4C99.1,152.3,99.2,152.4,99.2,152.4z M99.7,152.6C99.7,152.6,99.7,152.7,99.7,152.6
			c0.1,0.1,0,0.1,0,0.1h-0.2c-0.3,0-0.4,0-0.5,0c-0.1,0-0.1,0-0.1-0.1c0,0,0-0.1,0.1-0.1c0.1,0,0.2,0,0.5,0H99.7z M99.3,158.1
			C99.3,158.1,99.3,158.1,99.3,158.1c-0.1,0.1-0.2,0.1-0.3,0.1c-0.1,0-0.1,0-0.1-0.1c0,0,0-0.1,0.1-0.1
			C99.1,158,99.2,158,99.3,158.1C99.3,158,99.3,158,99.3,158.1z M100.1,152.9C100.1,152.9,100.1,153,100.1,152.9
			c0.1,0.1,0,0.1,0,0.1h-0.5c-0.3,0-0.4,0-0.5,0c-0.1,0-0.2,0-0.2-0.1c0,0,0-0.1,0.2-0.1c0.1,0,0.2,0,0.5,0H100.1z M99.8,157.7
			C99.8,157.7,99.8,157.8,99.8,157.7c0.1,0.1,0,0.1,0,0.1h-0.1c-0.3,0-0.4,0-0.5,0c-0.1,0-0.1,0-0.1-0.1c0-0.1,0-0.1,0.1-0.1
			c0.1,0,0.2,0,0.5,0H99.8z M100.4,153.2C100.4,153.2,100.4,153.3,100.4,153.2c0.1,0.1,0,0.1,0,0.1h-0.7c-0.3,0-0.4,0-0.5,0
			c-0.1,0-0.2,0-0.2-0.1c0,0,0-0.1,0.2-0.1c0.1,0,0.2,0,0.5,0H100.4z M100.1,157.4C100.1,157.4,100.2,157.5,100.1,157.4
			c0.1,0.1,0,0.1,0,0.1h-0.4c-0.3,0-0.4,0-0.5,0c-0.1,0-0.2,0-0.2-0.1c0,0,0-0.1,0.2-0.1c0.1,0,0.2,0,0.5,0H100.1z M100.5,153.5
			C100.6,153.5,100.6,153.6,100.5,153.5c0.1,0.1,0,0.1,0,0.1h-0.9c-0.3,0-0.4,0-0.5,0c-0.1,0-0.1,0-0.1-0.1c0-0.1,0-0.1,0.1-0.1
			c0.1,0,0.2,0,0.5,0H100.5z M100.4,157.1C100.4,157.1,100.5,157.2,100.4,157.1c0.1,0.1,0,0.1,0,0.1h-0.7c-0.3,0-0.4,0-0.5,0
			c-0.1,0-0.1,0-0.1-0.1c0-0.1,0-0.1,0.1-0.1c0.1,0,0.2,0,0.5,0H100.4z M100.7,153.8C100.8,153.8,100.8,153.9,100.7,153.8
			c0.1,0.1,0,0.1,0,0.1h-1c-0.3,0-0.4,0-0.5,0c-0.1,0-0.2,0-0.2-0.1c0,0,0-0.1,0.2-0.1c0.1,0,0.2,0,0.5,0H100.7z M100.6,156.8
			C100.6,156.8,100.7,156.9,100.6,156.8c0.1,0.1,0,0.1,0,0.1h-0.8c-0.3,0-0.4,0-0.5,0c-0.1,0-0.2,0-0.2-0.1c0,0,0-0.1,0.2-0.1
			c0.1,0,0.2,0,0.5,0H100.6z M100.8,154.1C100.8,154.1,100.9,154.2,100.8,154.1c0.1,0.1,0,0.1,0,0.1h-1c-0.3,0-0.4,0-0.5,0
			c-0.1,0-0.2,0-0.2-0.1c0-0.1,0-0.1,0.2-0.1c0.1,0,0.2,0,0.5,0H100.8z M100.7,156.5C100.8,156.5,100.8,156.6,100.7,156.5
			c0.1,0.1,0,0.1,0,0.1h-0.9c-0.3,0-0.4,0-0.5,0c-0.1,0-0.1,0-0.1-0.1c0-0.1,0-0.1,0.1-0.1c0.1,0,0.2,0,0.5,0H100.7z M100.9,154.4
			C100.9,154.4,100.9,154.5,100.9,154.4c0.1,0.1,0,0.1,0,0.1h-1.1c-0.3,0-0.4,0-0.5,0c-0.1,0-0.1,0-0.1-0.1c0,0,0-0.1,0.1-0.1
			c0.1,0,0.2,0,0.5,0H100.9z M100.8,156.2C100.9,156.2,100.9,156.3,100.8,156.2c0.1,0.1,0,0.1,0,0.1h-1c-0.3,0-0.4,0-0.5,0
			c-0.1,0-0.1,0-0.1-0.1c0,0,0-0.1,0.1-0.1c0.1,0,0.2,0,0.5,0H100.8z M100.9,155.9C101,155.9,101,156,100.9,155.9
			c0.1,0.1,0,0.1,0,0.1h-1.1c-0.3,0-0.4,0-0.5,0c-0.1,0-0.1,0-0.1-0.1c0-0.1,0-0.1,0.1-0.1c0.1,0,0.2,0,0.5,0H100.9z M100.9,154.7
			C101,154.7,101,154.8,100.9,154.7c0.1,0.1,0,0.1,0,0.1h-1.1c-0.3,0-0.4,0-0.5,0c-0.1,0-0.2,0-0.2-0.1c0-0.1,0-0.1,0.2-0.1
			c0.1,0,0.2,0,0.5,0H100.9z M100.9,155C101,155,101,155.1,100.9,155c0.1,0.1,0,0.1,0,0.1h-1.1c-0.3,0-0.4,0-0.5,0
			c-0.1,0-0.2,0-0.2-0.1c0,0,0-0.1,0.2-0.1c0.1,0,0.2,0,0.5,0H100.9z M101,155.3C101,155.3,101,155.4,101,155.3c0.1,0.1,0,0.1,0,0.1
			h-1.1c-0.3,0-0.4,0-0.5,0c-0.1,0-0.2,0-0.2-0.1c0-0.1,0-0.1,0.2-0.1c0.1,0,0.2,0,0.5,0H101z M100.9,155.6
			C101,155.6,101,155.7,100.9,155.6c0.1,0.1,0,0.1,0,0.1h-1.1c-0.3,0-0.4,0-0.5,0c-0.1,0-0.2,0-0.2-0.1c0,0,0-0.1,0.2-0.1
			c0.1,0,0.2,0,0.5,0H100.9z"/>
		<path class="st0" d="M117.3,158.7c-0.1,0-0.2-0.1-0.2-0.2c0-0.1,0.1-0.2,0.2-0.2h0.8V153c-0.4,0.1-0.7,0.1-1.1,0.1
			c-0.2,0-0.3,0-0.3-0.2c0-0.1,0.1-0.2,0.2-0.2c1.1,0,2.4-0.4,3.4-1.2c0,0,0.1,0,0.1,0c0.1,0,0.2,0.1,0.2,0.2v6.6h0.8
			c0.1,0,0.2,0.1,0.2,0.2c0,0.1-0.1,0.2-0.2,0.2H117.3z M120.3,152.1c-0.6,0.4-1.2,0.6-1.8,0.8v5.4h1.8V152.1z M120.1,153.2
			C120.1,153.2,120.1,153.3,120.1,153.2c0.1,0.1,0,0.1,0,0.1h-0.8c-0.3,0-0.4,0-0.5,0c-0.1,0-0.2,0-0.2-0.1c0,0,0-0.1,0.2-0.1
			c0.1,0,0.2,0,0.5,0H120.1z M120.1,153.5C120.1,153.5,120.1,153.6,120.1,153.5c0.1,0.1,0,0.1,0,0.1h-0.8c-0.3,0-0.4,0-0.5,0
			c-0.1,0-0.2,0-0.2-0.1c0-0.1,0-0.1,0.2-0.1c0.1,0,0.2,0,0.5,0H120.1z M120.1,153.8C120.1,153.8,120.1,153.9,120.1,153.8
			c0.1,0.1,0,0.1,0,0.1h-0.8c-0.3,0-0.4,0-0.5,0c-0.1,0-0.2,0-0.2-0.1c0,0,0-0.1,0.2-0.1c0.1,0,0.2,0,0.5,0H120.1z M120.1,154.1
			C120.1,154.1,120.1,154.2,120.1,154.1c0.1,0.1,0,0.1,0,0.1h-0.8c-0.3,0-0.4,0-0.5,0c-0.1,0-0.2,0-0.2-0.1c0-0.1,0-0.1,0.2-0.1
			c0.1,0,0.2,0,0.5,0H120.1z M120.1,154.4C120.1,154.4,120.1,154.5,120.1,154.4c0.1,0.1,0,0.1,0,0.1h-0.8c-0.3,0-0.4,0-0.5,0
			c-0.1,0-0.2,0-0.2-0.1c0,0,0-0.1,0.2-0.1c0.1,0,0.2,0,0.5,0H120.1z M120.1,154.7C120.1,154.7,120.1,154.8,120.1,154.7
			c0.1,0.1,0,0.1,0,0.1h-0.8c-0.3,0-0.4,0-0.5,0c-0.1,0-0.2,0-0.2-0.1c0-0.1,0-0.1,0.2-0.1c0.1,0,0.2,0,0.5,0H120.1z M120.1,155
			C120.1,155,120.1,155.1,120.1,155c0.1,0.1,0,0.1,0,0.1h-0.8c-0.3,0-0.4,0-0.5,0c-0.1,0-0.2,0-0.2-0.1c0,0,0-0.1,0.2-0.1
			c0.1,0,0.2,0,0.5,0H120.1z M120.1,155.3C120.1,155.3,120.1,155.4,120.1,155.3c0.1,0.1,0,0.1,0,0.1h-0.8c-0.3,0-0.4,0-0.5,0
			c-0.1,0-0.2,0-0.2-0.1c0-0.1,0-0.1,0.2-0.1c0.1,0,0.2,0,0.5,0H120.1z M120.1,155.6C120.1,155.6,120.1,155.7,120.1,155.6
			c0.1,0.1,0,0.1,0,0.1h-0.8c-0.3,0-0.4,0-0.5,0c-0.1,0-0.2,0-0.2-0.1c0,0,0-0.1,0.2-0.1c0.1,0,0.2,0,0.5,0H120.1z M120.1,155.9
			C120.1,155.9,120.1,156,120.1,155.9c0.1,0.1,0,0.1,0,0.1h-0.8c-0.3,0-0.4,0-0.5,0c-0.1,0-0.2,0-0.2-0.1c0-0.1,0-0.1,0.2-0.1
			c0.1,0,0.2,0,0.5,0H120.1z M120.1,156.2C120.1,156.2,120.1,156.3,120.1,156.2c0.1,0.1,0,0.1,0,0.1h-0.8c-0.3,0-0.4,0-0.5,0
			c-0.1,0-0.2,0-0.2-0.1c0,0,0-0.1,0.2-0.1c0.1,0,0.2,0,0.5,0H120.1z M120.1,156.5C120.1,156.5,120.1,156.6,120.1,156.5
			c0.1,0.1,0,0.1,0,0.1h-0.8c-0.3,0-0.4,0-0.5,0c-0.1,0-0.2,0-0.2-0.1c0-0.1,0-0.1,0.2-0.1c0.1,0,0.2,0,0.5,0H120.1z M120.1,156.8
			C120.1,156.8,120.1,156.9,120.1,156.8c0.1,0.1,0,0.1,0,0.1h-0.8c-0.3,0-0.4,0-0.5,0c-0.1,0-0.2,0-0.2-0.1c0,0,0-0.1,0.2-0.1
			c0.1,0,0.2,0,0.5,0H120.1z M120.1,157.1C120.1,157.1,120.1,157.2,120.1,157.1c0.1,0.1,0,0.1,0,0.1h-0.8c-0.3,0-0.4,0-0.5,0
			c-0.1,0-0.2,0-0.2-0.1c0-0.1,0-0.1,0.2-0.1c0.1,0,0.2,0,0.5,0H120.1z M120.1,157.4C120.1,157.4,120.1,157.5,120.1,157.4
			c0.1,0.1,0,0.1,0,0.1h-0.8c-0.3,0-0.4,0-0.5,0c-0.1,0-0.2,0-0.2-0.1c0,0,0-0.1,0.2-0.1c0.1,0,0.2,0,0.5,0H120.1z M120.1,157.7
			C120.1,157.7,120.1,157.8,120.1,157.7c0.1,0.1,0,0.1,0,0.1h-0.8c-0.3,0-0.4,0-0.5,0c-0.1,0-0.2,0-0.2-0.1c0-0.1,0-0.1,0.2-0.1
			c0.1,0,0.2,0,0.5,0H120.1z M120.1,158C120.1,158,120.1,158.1,120.1,158c0.1,0.1,0,0.1,0,0.1h-0.8c-0.3,0-0.4,0-0.5,0
			c-0.1,0-0.2,0-0.2-0.1c0,0,0-0.1,0.2-0.1c0.1,0,0.2,0,0.5,0H120.1z M120.1,152.9C120.1,152.9,120.1,153,120.1,152.9
			c0.1,0.1,0,0.1,0,0.1h-0.7c-0.3,0-0.4,0-0.5,0c-0.1,0-0.2,0-0.2-0.1c0,0,0-0.1,0.2-0.1c0.1,0,0.2,0,0.5,0H120.1z M120.1,152.7
			C120.1,152.7,120.1,152.8,120.1,152.7c-0.3,0.1-0.4,0.1-0.5,0.1c-0.1,0-0.2,0-0.2-0.1c0,0,0-0.1,0.2-0.1
			C119.7,152.6,119.8,152.6,120.1,152.7C120.1,152.6,120.1,152.7,120.1,152.7z"/>
		<path class="st0" d="M138.7,158.7c-0.1,0-0.2-0.1-0.2-0.2c0-0.1,0.1-0.2,0.2-0.2h0.7v-1.2h-3.1c-0.1,0-0.2-0.1-0.2-0.2
			c0-0.1,0-0.1,0.1-0.2c1.3-1.2,2.3-4.8,2.3-4.8c0-0.1,0.1-0.1,0.2-0.1h2.5c0.1,0,0.2,0.1,0.2,0.2c0,1.4-1.5,3.8-3.2,4.7h1.1v-0.6
			c0-0.1,0.1-0.2,0.2-0.2c0.8-0.2,1.6-0.8,2-1.5c0-0.1,0.1-0.1,0.2-0.1c0.2,0,0.2,0.1,0.2,0.2v2.1l1,0c0.1,0,0.2,0.1,0.2,0.2
			c0,0.1-0.1,0.2-0.2,0.2l-1,0v1.3h0.6c0.1,0,0.2,0.1,0.2,0.2c0,0.1-0.1,0.2-0.2,0.2H138.7z M137.2,156.7c0.5,0,1.5-0.6,2.4-1.6
			c0.9-1,1.4-2.1,1.5-2.9h-2.2c-0.1,0.3-0.3,1-0.7,1.9c-0.5,1.2-0.9,2.1-1.4,2.7H137.2z M137.9,156.3
			C137.9,156.3,137.9,156.4,137.9,156.3c-0.2,0.1-0.3,0.1-0.4,0.1c-0.1,0-0.1,0-0.1-0.1c0,0,0-0.1,0.1-0.1
			C137.6,156.2,137.7,156.2,137.9,156.3C137.9,156.2,137.9,156.3,137.9,156.3z M138.3,155.9C138.3,155.9,138.3,156,138.3,155.9
			c0.1,0.1,0,0.1,0,0.1h-0.1c-0.3,0-0.4,0-0.5,0c-0.1,0-0.2,0-0.2-0.1c0-0.1,0-0.1,0.2-0.1C137.8,155.9,137.9,155.9,138.3,155.9
			L138.3,155.9z M138.7,155.6C138.7,155.6,138.7,155.7,138.7,155.6c0.1,0.1,0,0.1,0,0.1h-0.3c-0.3,0-0.4,0-0.5,0
			c-0.1,0-0.2,0-0.2-0.1c0,0,0-0.1,0.2-0.1c0.1,0,0.2,0,0.5,0H138.7z M139,155.3C139,155.3,139,155.4,139,155.3c0.1,0.1,0,0.1,0,0.1
			h-0.5c-0.3,0-0.4,0-0.5,0c-0.1,0-0.1,0-0.1-0.1c0-0.1,0-0.1,0.1-0.1c0.1,0,0.2,0,0.5,0H139z M139.3,155
			C139.3,155,139.3,155.1,139.3,155c0.1,0.1,0,0.1,0,0.1h-0.6c-0.3,0-0.4,0-0.5,0c-0.1,0-0.1,0-0.1-0.1c0,0,0-0.1,0.1-0.1
			c0.1,0,0.2,0,0.5,0H139.3z M139.5,154.7C139.6,154.7,139.6,154.8,139.5,154.7c0.1,0.1,0,0.1,0,0.1h-0.8c-0.3,0-0.4,0-0.5,0
			c-0.1,0-0.2,0-0.2-0.1c0-0.1,0-0.1,0.2-0.1c0.1,0,0.2,0,0.5,0H139.5z M139.8,154.4C139.8,154.4,139.8,154.5,139.8,154.4
			c0.1,0.1,0,0.1,0,0.1h-0.9c-0.3,0-0.4,0-0.5,0c-0.1,0-0.1,0-0.1-0.1c0,0,0-0.1,0.1-0.1c0.1,0,0.2,0,0.5,0H139.8z M140,154.1
			C140,154.1,140,154.2,140,154.1c0.1,0.1,0,0.1,0,0.1H139c-0.3,0-0.4,0-0.5,0c-0.1,0-0.2,0-0.2-0.1c0-0.1,0-0.1,0.2-0.1
			c0.1,0,0.2,0,0.5,0H140z M140.1,153.8C140.2,153.8,140.2,153.9,140.1,153.8c0.1,0.1,0,0.1,0,0.1h-1c-0.3,0-0.4,0-0.5,0
			c-0.1,0-0.1,0-0.1-0.1c0,0,0-0.1,0.1-0.1c0.1,0,0.2,0,0.5,0H140.1z M140.3,153.5C140.4,153.5,140.4,153.6,140.3,153.5
			c0.1,0.1,0,0.1,0,0.1h-1.1c-0.3,0-0.4,0-0.5,0c-0.1,0-0.1,0-0.1-0.1c0-0.1,0-0.1,0.1-0.1c0.1,0,0.2,0,0.5,0H140.3z M140.5,153.2
			C140.5,153.2,140.6,153.3,140.5,153.2c0.1,0.1,0,0.1,0,0.1h-1.1c-0.3,0-0.4,0-0.5,0c-0.1,0-0.2,0-0.2-0.1c0,0,0-0.1,0.2-0.1
			c0.1,0,0.2,0,0.5,0H140.5z M140.6,152.9C140.6,152.9,140.7,153,140.6,152.9c0.1,0.1,0,0.1,0,0.1h-1.1c-0.3,0-0.4,0-0.5,0
			c-0.1,0-0.1,0-0.1-0.1c0,0,0-0.1,0.1-0.1c0.1,0,0.2,0,0.5,0H140.6z M140.7,152.6C140.8,152.6,140.8,152.7,140.7,152.6
			c0.1,0.1,0,0.1,0,0.1h-1.1c-0.3,0-0.4,0-0.5,0c-0.1,0-0.2,0-0.2-0.1c0,0,0-0.1,0.2-0.1c0.1,0,0.2,0,0.5,0H140.7z M140.8,152.3
			C140.8,152.3,140.8,152.4,140.8,152.3c0.1,0.1,0,0.1,0,0.1h-1.1c-0.3,0-0.4,0-0.5,0c-0.1,0-0.1,0-0.1-0.1s0-0.1,0.1-0.1
			c0.1,0,0.2,0,0.5,0H140.8z M141.6,155.1c-0.5,0.5-1.2,1-1.8,1.1v2h1.8V155.1z M141.4,156.5C141.5,156.5,141.5,156.6,141.4,156.5
			c0.1,0.1,0,0.1,0,0.1h-0.8c-0.3,0-0.4,0-0.5,0c-0.1,0-0.1,0-0.1-0.1c0-0.1,0-0.1,0.1-0.1c0.1,0,0.2,0,0.5,0H141.4z M141.4,156.8
			C141.5,156.8,141.5,156.9,141.4,156.8c0.1,0.1,0,0.1,0,0.1h-0.8c-0.3,0-0.4,0-0.5,0c-0.1,0-0.1,0-0.1-0.1c0,0,0-0.1,0.1-0.1
			c0.1,0,0.2,0,0.5,0H141.4z M141.4,157.1C141.5,157.1,141.5,157.2,141.4,157.1c0.1,0.1,0,0.1,0,0.1h-0.8c-0.3,0-0.4,0-0.5,0
			c-0.1,0-0.1,0-0.1-0.1c0-0.1,0-0.1,0.1-0.1c0.1,0,0.2,0,0.5,0H141.4z M141.4,157.4C141.5,157.4,141.5,157.5,141.4,157.4
			c0.1,0.1,0,0.1,0,0.1h-0.8c-0.3,0-0.4,0-0.5,0c-0.1,0-0.1,0-0.1-0.1c0,0,0-0.1,0.1-0.1c0.1,0,0.2,0,0.5,0H141.4z M141.4,157.7
			C141.5,157.7,141.5,157.8,141.4,157.7c0.1,0.1,0,0.1,0,0.1h-0.8c-0.3,0-0.4,0-0.5,0c-0.1,0-0.1,0-0.1-0.1c0-0.1,0-0.1,0.1-0.1
			c0.1,0,0.2,0,0.5,0H141.4z M141.4,158C141.5,158,141.5,158.1,141.4,158c0.1,0.1,0,0.1,0,0.1h-0.8c-0.3,0-0.4,0-0.5,0
			c-0.1,0-0.1,0-0.1-0.1c0,0,0-0.1,0.1-0.1c0.1,0,0.2,0,0.5,0H141.4z M141.4,156.2C141.5,156.2,141.5,156.3,141.4,156.2
			c0.1,0.1,0,0.1,0,0.1H141c-0.3,0-0.4,0-0.5,0c-0.1,0-0.2,0-0.2-0.1c0,0,0-0.1,0.2-0.1c0.1,0,0.2,0,0.5,0H141.4z M141.5,156
			C141.5,156,141.5,156.1,141.5,156c-0.4,0.1-0.4,0.1-0.5,0.1c-0.1,0-0.2,0-0.2-0.1c0-0.1,0-0.1,0.2-0.1
			C141,155.9,141.1,155.9,141.5,156C141.5,155.9,141.5,156,141.5,156z M141.4,155.6C141.4,155.6,141.5,155.7,141.4,155.6
			c0.1,0.1,0,0.2,0,0.2C141.4,155.8,141.3,155.7,141.4,155.6C141.3,155.7,141.4,155.6,141.4,155.6z"/>
	</g>
	<g>
		<g>
			<path class="st0" d="M64.2,140.4c0,0.6-0.5,1.2-1.4,1.2h-6.4v-0.7h1.5v-2.4h-1.5v-0.7h5.7c0.5,0,0.8,0.2,0.9,0.4
				c0.2,0.2,0.3,0.5,0.3,0.8c0,0.1,0,0.3-0.1,0.4c0.3,0.1,0.5,0.2,0.6,0.3C64.1,139.8,64.2,140.1,64.2,140.4z M62.2,138.4h-3.6v0.8
				h3.6c0.3,0,0.5-0.2,0.5-0.4C62.7,138.6,62.5,138.4,62.2,138.4z M63.5,140.4c0-0.3-0.2-0.5-0.6-0.5h-4.2v1h4.3
				C63.3,140.9,63.5,140.6,63.5,140.4z"/>
			<path class="st0" d="M72.5,139.7c0,0.5-0.2,1-0.6,1.3c-0.4,0.4-0.9,0.5-1.5,0.6v0h-0.1c0,0,0,0-0.1,0h-2.9h-2.6v-0.7h1.5v-2.4
				h-1.5v-0.7h4.4h1.2v0c0.4,0,0.7,0.1,1,0.2c0.3,0.1,0.5,0.3,0.7,0.5C72.4,138.7,72.5,139.2,72.5,139.7z M71.8,139.7
				c0-0.5-0.2-1.2-1.4-1.3H67v2.4h3.4C71.4,140.8,71.8,140.3,71.8,139.7z"/>
			<path class="st0" d="M81.1,140.9v0.7h-3.4v-0.7h0.8l-1.4-1l-1.4,1h0.8v0.7h-3.4v-0.7h1.3v0l2-1.4l-1.7-1.2h-0.1h-1.5v-0.7h3.4
				v0.7h-0.5l1.1,0.8l1.1-0.8h-0.5v-0.7h3.4v0.7h-1.5h-0.1l-1.7,1.2l2,1.4v0H81.1z"/>
		</g>
		<g>
			<rect x="56.1" y="144.4" class="st0" width="25" height="1"/>
		</g>
	</g>
	<g>
		<g>
			<path class="st0" d="M149.8,139.9L149.8,139.9C149.8,139.9,149.7,139.9,149.8,139.9h-3.6v1h1.5v0.7H144v-0.7h1.5v-2.4H144v-0.7
				h5.8v0c0.5,0,0.8,0.2,1,0.4c0.2,0.2,0.3,0.5,0.3,0.8C151,139.4,150.6,139.9,149.8,139.9z M150.2,138.8c0-0.3-0.1-0.4-0.4-0.4
				h-3.6v0.8h3.6C150.1,139.2,150.2,139,150.2,138.8z"/>
			<path class="st0" d="M159.8,141.2c-0.2,0.2-0.5,0.4-1,0.4c0,0-0.1,0-0.1,0c-0.3,0-0.6-0.1-0.9-0.3c-0.3-0.2-0.5-0.4-0.7-0.6
				c-0.1-0.1-0.2-0.2-0.4-0.4c-0.5-0.4-0.7-0.5-0.7-0.5s0,0,0,0H154v1h1.5v0.7h-3.7v-0.7h1.5v-2.4h-1.5v-0.7h5.8
				c0.5,0,0.8,0.2,1,0.4c0.2,0.2,0.3,0.5,0.3,0.8c0,0.5-0.4,1.1-1.2,1.1h0c0,0,0,0,0,0h-0.2c0.1,0.1,0.2,0.2,0.3,0.3
				c0.4,0.4,0.7,0.7,1.1,0.6c0.7,0,0.7-0.4,0.7-0.5h0.7C160.2,140.7,160,140.9,159.8,141.2z M154,138.4v0.8h3.6
				c0.3,0,0.5-0.2,0.5-0.3c0-0.3-0.1-0.4-0.4-0.4H154z"/>
			<path class="st0" d="M166.3,141.3c-0.5,0.3-1.2,0.4-1.8,0.4c-0.2,0-0.3,0-0.4,0c-0.9-0.1-1.7-0.3-2.3-0.6c0,0,0,0-0.1,0v0.5H161
				v-1.4h0.1h0.7c0,0,0.1,0.2,0.4,0.3c1,0.6,3.1,0.7,3.8,0.2c0.2-0.1,0.2-0.2,0.2-0.3c0-0.4-1.2-0.4-2.1-0.4c-1.1,0-2.2,0-2.7-0.5
				c-0.2-0.2-0.3-0.4-0.3-0.7c0-0.4,0.3-0.8,0.7-1c0.4-0.2,0.8-0.2,1.4-0.2c0.7,0,1.6,0.1,2.2,0.4c0.2,0.1,0.5,0.2,0.6,0.3v-0.5h0.7
				v1.4H166h-0.1c0-0.1-0.2-0.3-0.8-0.5c-0.6-0.2-1.3-0.3-2-0.3c-0.5,0-0.8,0.1-1.1,0.2c-0.3,0.1-0.3,0.3-0.3,0.4
				c0,0.1,0,0.2,0.1,0.2c0.1,0.1,0.3,0.2,0.8,0.2c0.4,0,0.9,0,1.4,0c0.6,0,1.3,0,1.8,0.1c0.3,0.1,0.5,0.1,0.7,0.3
				c0.2,0.2,0.4,0.4,0.4,0.7C166.9,140.7,166.7,141.1,166.3,141.3z"/>
		</g>
		<g>
			<rect x="143.1" y="144.4" class="st0" width="24" height="1"/>
		</g>
	</g>
	<g>
		<path class="st0" d="M110.4,220.7L0,110.4L110.4,0l110.4,110.4L110.4,220.7z M8.7,110.4L110.4,212L212,110.4L110.4,8.7L8.7,110.4z
			"/>
	</g>
</g>
</svg>
