<?xml version="1.0" encoding="utf-8"?>
<!-- Generator: Adobe Illustrator 19.2.1, SVG Export Plug-In . SVG Version: 6.00 Build 0)  -->
<svg version="1.1" id="Calque_1" xmlns="http://www.w3.org/2000/svg" xmlns:xlink="http://www.w3.org/1999/xlink" x="0px" y="0px"
	 viewBox="0 0 822.9 507.1" style="enable-background:new 0 0 822.9 507.1;" xml:space="preserve">
<metadata><?xpacket begin="﻿" id="W5M0MpCehiHzreSzNTczkc9d"?>
<x:xmpmeta xmlns:x="adobe:ns:meta/" x:xmptk="Adobe XMP Core 5.6-c111 79.158366, 2015/09/25-01:12:00        ">
   <rdf:RDF xmlns:rdf="http://www.w3.org/1999/02/22-rdf-syntax-ns#">
      <rdf:Description rdf:about=""/>
   </rdf:RDF>
</x:xmpmeta>
                                                                                                    
                                                                                                    
                                                                                                    
                                                                                                    
                                                                                                    
                                                                                                    
                                                                                                    
                                                                                                    
                                                                                                    
                                                                                                    
                                                                                                    
                                                                                                    
                                                                                                    
                                                                                                    
                                                                                                    
                                                                                                    
                                                                                                    
                                                                                                    
                                                                                                    
                                                                                                    
                           
<?xpacket end="w"?></metadata>
<style type="text/css">
	.st0{fill:#C1272D;}
</style>
<path class="st0" d="M302.6,340.2c-7.5-0.3-17.5-1.1-24.6,2c-9.4,4.1-18.9,8.2-28.3,12.4c4.1-68.9,30.5-139,3.5-205.9
	c-1.6-3.9-17-2.8-20-2.8c-1,0-20.8,0.8-20,2.8c20.3,50.4,10.3,102.6,2.4,154.7c-6.3-15.2-13.8-30-21.1-44.7
	c-9.6-19-19.5-37.9-28-57.4c-6.1-14-13.1-30-12.3-45.6c0.2-3.5-39.8-4.8-40,0c0,1,0,1.9,0,2.9c-0.5,0.3-0.8,0.7-1,1.1
	c-9.4,27.2-17.8,54.7-23.9,82.9c-0.2,0.9-0.4,1.9-0.6,2.8c-0.2-9.5-0.3-19.1-0.6-28.6c-0.1-4.5-40.1-3.9-40,0
	c0.8,31.2,1,62.5,1.6,93.7c-5.1-15.7-8.9-31.8-9.6-48.7c-0.2-4.7-40.2-3.7-40,0c1.6,40.6,21.1,76.8,35,114.1
	c1.4,3.9,17.1,2.8,20,2.8c1,0,20.8-0.7,20-2.8c-5.2-13.8-11.1-27.5-16.6-41.4c7.9,0.8,19.5,0.5,26.2-0.5c0.3,1.5,0.6,3,1,4.5
	c3.2,12.7,9.6,24.3,19.4,33.1c11.9,10.7,28.3,13.7,43.7,15.4c19,2,41.6,2.5,59.9-4.1c3-1.1,5.6-2.5,8.1-4.2c10.6,1.1,29-0.3,31.8-2
	c21.6-13.1,44.9-23,68.1-33C319.4,342.5,303.7,340.3,302.6,340.2z M177.8,377.7c-3,2.1-6.7,3.5-10.1,4.3c-2.3-0.4-5.2-1.3-7.4-2.1
	c-12.9-4.6-22.6-14.1-28.8-26c-15.6-30-10-69.4-4.2-101.2c2.1-11.1,4.6-22.2,7.4-33.1c1.5,3,3,5.9,4.4,8.8
	c14.4,29.1,30.4,57.7,41.5,88.3C187.1,334.2,196.8,364.3,177.8,377.7z"/>
<path class="st0" d="M657.7,450.4c-44.4-12.9-78.8-43.3-116.2-68.7c-18.2-12.3-37.6-22.8-58.7-29.2c-11.2-3.4-22.9-5.3-34.7-6.2
	c10.8-65.5,39.5-128.2,36.4-195.5c-0.2-4.8-40.2-3.6-40,0c2,43-9,84.1-20,125.3c-1.2-3.4-2.5-6.9-3.8-10.3
	c-12-30.8-29.2-61.5-56-81.7c-5.2-3.9-18.7-2.2-24.6-2c-0.7,0-7.4,0.6-11.4,1.5c-0.1-5.9-0.2-11.9-0.3-17.8c-0.1-4.4-40.1-4-40,0
	c1,55.7,2.8,111.5-1,167.2c-0.2,3.3,39.7,5,40,0c3.3-48.4,2.4-96.8,1.4-145.3c25.5,20.5,41.3,50.8,52.9,80.8
	c9.9,25.4,16.7,52.2,21.1,79.1c-93.5,11.1-175,74.3-272.3,61.4c-2.5-0.3-5.7,39.3,0,40c97.8,13,180.7-50.5,275-61.7
	c23.8-2.8,48.5-2,71.9,3.6c22.3,5.4,42.8,16.6,61.9,29.2c38.7,25.5,73.1,57.1,118.5,70.3C658.3,490.6,664.9,452.5,657.7,450.4z"/>
<path class="st0" d="M412.5,79.2c-8.6-0.7-18.9-1.4-27.4,1c-13.2,3.7-26.5,6.9-40,8.1c-6.3-24.9-6.9-51.6-2.7-75.7
	c0.3-1.7,0.6-3.4,1-5c0.3-1.8-38.7-6.3-40,0c-0.4,1.7-0.7,3.4-1,5.2c-3.8,20-8.8,43.4-17.5,64.6c-13.1-6-25.4-14.1-36.3-23.4
	c-4.7-4-19.1-2.2-24.6-2c-1.1,0-16.7,1.1-14,3.4c20.1,17.3,43.9,28.1,69.4,34.2c-9.7,19.1-23.1,35.2-42.3,43.4
	c-2.7,1.2,12.9,3.4,14,3.4c7.6,0.3,17.5,1.1,24.6-2c14.5-6.2,25.8-16.8,34.7-29.7c7.9,20.9,20.3,39.7,37.8,53.7c5,4,18.9,2.2,24.6,2
	c1.1,0,16.8-1.2,14-3.4c-19.5-15.7-32.4-37.7-39.7-61.8c25.1-1.2,49.9-5.6,72.7-12.1C427.4,80.9,414.2,79.4,412.5,79.2z"/>
<path class="st0" d="M623.7,252.8c0,29.6-7.7,59.2-27.4,81.9c-7.8,9-17.6,16.1-28.4,21.2c-3.8,1.8-7.7,3.1-11.8,4.2
	c-17.8-4.6-33.5-22.1-40.6-40.4c-3.7-9.6-5.8-19.6-6.6-29.8c3.5-0.2,6.8-0.7,9.9-1.6c29.5-9.2,54.2-27.4,67.6-55.8
	c9.8-20.9,12.6-46.4,5.7-68.5c-2.4-7.8-6.5-15.3-13-20.5c-11.3-9-32.9-6.7-45.9-4.9c-27.1,3.7-39.2,35.1-47.5,57.5
	c-18.1,49-35.7,138.7,28.1,164.1c13.7,5.4,29,6.4,43.5,6.3c15.1-0.1,30.1-1.7,44.3-7c23-8.6,40.6-27.9,50.8-49.8
	c8.2-17.7,11.3-37.4,11.3-56.8C663.7,248.6,623.7,248.6,623.7,252.8z M519.6,214.8c5-16.8,11.1-33.5,19.8-48.8
	c2.4-4.2,5.1-8.5,8.3-12.3c3,5.3,4.9,11.4,6.2,17.2c9.1,41.1-11.3,81.7-45.3,103.3C509.3,253.9,514,233.4,519.6,214.8z"/>
<path class="st0" d="M723.9,88.4c0.9-4-38.3-12.4-39.2-8.1c-14.9,68.5-17,138.2-17.5,208c0,6.5,39.2,9.9,39.2,8.1
	C706.9,226.6,709,156.9,723.9,88.4z"/>
<path class="st0" d="M709.8,349.3c-2.4-9.3-3.2-18.6-2.4-28.1c0.3-3.4-17.1-6.4-19-6.8c-1.4-0.3-19.9-4.2-20.2-1.3
	c-0.9,9.5,0,18.8,2.4,28.1c0.4,1.7,4.1,2.7,5.3,3.1c4.4,1.6,9.1,2.7,13.7,3.7C690.5,348.2,710.2,351.1,709.8,349.3z"/>
<path class="st0" d="M760.8,190.8c-0.3-4.8-40.2-3.6-40,0c2.1,39.7,6.8,79.3,7,119.1c0,4.2,40.1,4.2,40,0
	C767.7,270.1,762.9,230.5,760.8,190.8z"/>
<path class="st0" d="M782.9,223.8c-8.1,43.1-16.8,86.2-19,130.1c-0.2,3.6,39.8,4.8,40,0c2.2-43.9,11-87,19-130.1
	C823.3,221.9,784,217.6,782.9,223.8z"/>
<path class="st0" d="M466.2,402.3c-27.1-0.5-54,1.5-80.3,8c-26.5,6.6-51.5,17.9-75.8,30c-4,2-2.8,16.7-2.8,20c0,1,1.1,20.9,2.8,20
	c24.4-12.1,49.4-23.1,75.8-30c26.2-6.8,53.4-8.5,80.3-8C470.2,442.5,470.6,402.4,466.2,402.3z"/>
<path class="st0" d="M715.8,465.1c-14.6-4-29-8.6-43.4-13.3c-2.2-0.7-2.8,19-2.8,20c0,2.7-1,18.8,2.8,20
	c14.4,4.8,28.8,9.3,43.4,13.3c2.4,0.7,2.8-18.9,2.8-20C718.6,482.6,719.5,466.1,715.8,465.1z"/>
<path class="st0" d="M734.5,472.9c-0.2-1-0.4-2.1-0.6-3.1c-0.1-1.2-0.5-2.1-1.4-2.7c-1.3-0.7-2.7-1.3-4-2l-0.8,0.7
	c-0.7,1.7-1.1,3.4-1.2,5.2c-0.7,4.7-0.8,9.4-0.8,14.2c0,4.7,0.2,9.5,0.8,14.2c0.2,1,0.4,2.1,0.6,3.1c0,1.2,0.5,2.1,1.4,2.7
	c1.3,0.7,2.7,1.3,4,2l0.7-0.7c0.7-1.7,1.1-3.4,1.2-5.1c0.6-4.7,0.8-9.4,0.8-14.2C735.3,482.4,735.1,477.6,734.5,472.9z"/>
<path class="st0" d="M640.1,46c-25.6-16.9-54.4-28.5-83.9-36.6c-29.2-8.1-61-12.5-91-6.8c-4,0.8-5.4,16.6-5.9,19.4
	c-0.2,1-2.5,20.6-0.3,20.2c0.5-0.1,1-0.2,1.5-0.3c0,2.7,0.4,5,1.6,6.1c23.8,23,54.2,40.8,85.3,51.9c29.6,10.5,66.9,13.8,87.3-14.9
	c3.5-4.9,4.1-13.1,5-18.8C640.3,63.1,643.7,48.4,640.1,46z M553.6,60.3c-14.2-4.8-28.2-11.3-41.6-19c12.9,1.7,25.6,4.4,38,7.7
	c17.5,4.6,34.9,10.8,51.5,18.6C585.7,69.1,568.6,65.4,553.6,60.3z"/>
</svg>
