<?xml version="1.0" encoding="utf-8"?>
<!-- Generator: Adobe Illustrator 19.2.0, SVG Export Plug-In . SVG Version: 6.00 Build 0)  -->
<svg version="1.1" id="Calque_1" xmlns="http://www.w3.org/2000/svg" xmlns:xlink="http://www.w3.org/1999/xlink" x="0px" y="0px"
	 viewBox="0 0 167.7 141.6" style="enable-background:new 0 0 167.7 141.6;" xml:space="preserve">
<style type="text/css">
	.st0{fill:url(#SVGID_1_);}
</style>
<g>
	<g>
		<linearGradient id="SVGID_1_" gradientUnits="userSpaceOnUse" x1="83.8267" y1="99.4124" x2="83.8267" y2="26.9097">
			<stop  offset="0" style="stop-color:#DE4335"/>
			<stop  offset="1" style="stop-color:#F3B063"/>
		</linearGradient>
		<path class="st0" d="M77.2,13.9l3.8,3l3.7-2.1c1.8,0.4,12.5,2.4,12.5,2.4c5.2-2.7,8.4-2.9,8.4-2.9c-1.4,0.1-6.4,3.1-6.4,3.1
			s5.4,1.8,16.8,2.2c19.4,0.6,15.7,0,29-2.4c13.4-2.4,22.6-9.4,22.6-9.4s-9.1-0.6-9.1-0.7c0-0.1,1-7,1-7c-2.7,2.6-10.9,5.4-10.9,5.4
			l-3.4,5.7l1.2-5.3c-25.1,8.6-61.6,3.4-61.6,3.4L81,5.7l-3.6,2.6C11.1,6.8,0,19.8,0,19.8s12-4.5,20-6C46.5,9,77.2,13.9,77.2,13.9z
			 M13.4,91.4C32,78,31.9,77.8,35.3,76c1.7-0.9,1.4-2,1.4-2l-1.2-26l0.4-0.5v-1c0,0-15.1-0.6-17.3-0.6c-2.3,0-2.5-2.5-2.5-2.5
			l-1.2-22.8c5.5-2.6,10.4,1.1,11.1,2.5c0.6,1.4,1,14.7,1,14.7l-2.6,2.3l0.6,0.6l8.6-4.4c1.2-0.1,1.1-2,1.1-2l-0.9-19.7L33.1,14
			c-17.7-1.2-28.9,7.7-28.9,7.7l0.6,0.8c2.1-0.1,2.9,1.1,2.9,1.1l0.5,7.7l-2.6,2.9c2.7,0.2,2.9,2.2,2.9,2.2s0.3,4.1,0.1,7.1
			c-0.2,3,3.1,3.5,3.1,3.5s12.8,1.5,14.1,1.4c1.3-0.1,1.5,1.4,1.5,1.4l0.8,16l-2.3,2.3l2.4,2.3l0.1,7.6c0,0-4.6,3.5-9.3,4.1
			c-4.6,0.6-5.2-2.9-5.2-2.9l-1.2-18.2c0,0,2.3-1.3,4-0.8c3.8,1.1,2.5,9.1,2.5,9.1l0.7,0.4l2.3-2.2l0-10.9c0,0-0.3-2.1-1.2-1.4
			c-2,1.5-8.6,2.7-8.6,2.7c-3.7,0.7-6.7-1.2-6.7-1.2l-0.8,0.3l0.6,1.3c0.9,0.3,1.6,1.3,1.6,1.3L7.1,69c-0.1,1-0.6,1.3-0.6,1.3
			l-1.8,2.1l2.3,1.3c1.1,0.4,1.4,16.9,1.4,16.9C9.1,94.3,13.4,91.4,13.4,91.4z M38.7,65.7c0,0,3.2,3.7,7,1.7
			c0.8-0.4,3.3-2.8,3.5-5.2l0.8,2.2c1-0.3,5.2-3.3,5.2-3.3c0.6-3,2.6-4.1,3.7-4.8l0,2.8c3.8-2.2,9.1-5,11.4-5.6L70,53.1
			c0,0-0.1-0.2-0.4-0.1l-3.5,0.3L66,38.1c0,0,0.7-1.6,2-2.6c0,0-2.7-1.6-2.5-2.2L65,15.5c0,0-0.4-0.4,2.4-1.2c0,0,0.8-0.6,0-0.8
			c0,0-7.8-0.7-9.2-0.4c0,0-0.5,0.1-0.4,0.4l0.3,21L57,36.8l1.5,1.4l0.3,14.4l0,1.5c0,0-3.5,1.9-3.5,3.1c0,1.2-0.2-16-0.2-16
			l1.2-1.7l-1.6-1.7c0,0-0.5-22.6-0.5-22.8c0,0,0-1,2.2-1.6c0,0,0.4-0.3,0-0.5c-0.4-0.2-8.7-0.2-8.7-0.2c0.1,0-0.6,0-0.5,1.2
			c0.1,1.2,0.6,24.3,0.6,24.3l-1.5,3l1.9,3l0.2,15c0,0,0.3,2.8-1,3.6c-1.3,0.8-2.3-0.6-2.3-0.6l-0.6-9.6l1.8-2.9l-2-1.7l-1.1-30.3
			c0,0-0.3-3.9,2.6-3.8c0.7,0,0.1-1.3,0.1-1.3s-7.2-0.3-9.2,0.7L36,13.9c0.2,1.8,1.3,38.6,1.5,38.6S36,55.9,36,55.9l2.1,2.4
			L38.7,65.7z M67.6,50.8l0.2,0.4c1.5-0.6,4.6,1.9,4.6,1.9l8.4-3.6l-0.3-0.4l-1.9,0.3c-2,0.5-2.2-0.7-2.2-0.7l-0.1-10l1.5-1.4
			l-1.7-1.9V22.9c0-0.8,1.7-1.4,1.7-1.4v-0.3c-1.5,0.4-9.4,1.5-9.4,1.5l0.2,0.4l1.2,0.2c0.8-0.1,0.6,0.8,0.6,0.8v12.5l-0.9,0.8
			l0.9,1.2l0.2,11.9C69.4,49.9,67.6,50.8,67.6,50.8z M71.3,15.2c-0.8,0.8-1.5,1.7-1.5,2.3c-0.2,1.6,1.7,4,3.6,3.6
			c2.4-0.4,3-1.5,3.6-3.6c0.6-1.9-2.2-3.8-3.6-3.6c-0.5,0.1-1.1,0.5-1.7,0.9c-0.1,0.1,1,2.1,0.9,2.1C72.6,17,71.4,15.1,71.3,15.2z
			 M79.8,18.4L81,34.3l0.7,0.3c0,0-0.2-16.4,5.6-14.8L88,35c0,0-1.4,1.6-1.5,1.9c-0.1,0.3,1.5,1.6,1.5,1.6v4.8c0,0,0.2,1.1-1.5,1.9
			c-0.6,0.3-3.8,2.5-3.8,2.5l0.4,0.7c0,0,7.3-3.3,16.7-4.4c0.9-0.7-0.3-1-0.3-1L94,43.7l0-5.2l1.2-2l-1.4-1.7l-0.6-14.4
			c0,0,6.5,1.3,7.5,4.2c0.5,1.3,0.4,5.5,0.4,5.5s1,1.7,1.4,0.2v-11c-9.5-2.3-17.2-3.8-17.2-3.8L79.8,18.4z M110.7,30.8
			c0-0.7,0-1.3,0.1-1.9c0.1-1.7,0.1-3,0.1-3.6c0.1-2,1.5-2,1.5-2s1.1,0.1,1.3,0.5c0.5,1,0.6,5.4,0.6,5.4l3.6-1l1-0.4c0,0,0-2,0-3.6
			c0-1.7,1.5-2.2,1.8-2.5c0.3-0.3,0-1.1,0-1.1s-14.4-0.3-17.3-1.2l-0.5,2.4c0,0,0.4,0.2,1.7,0.5c1.3,0.3,0.9,1.6,0.9,1.6
			s0,2.2-0.1,5.3c0,0.3-1.4,1.3-1.4,1.3s1.4,1.2,1.4,1.5c0,3.5-0.1,6.8-0.1,8.3c0.4,1,1,1.9,1.8,2.6c6.4-1.3,14-1.5,14-1.5l0-0.4
			c0,0-0.8,0-1.4,0c-0.7,0-0.7-0.5-0.7-0.5s0-4.5,0-5.1c-0.1-0.6,0.6-0.7,0.6-0.7l1.9-0.7l0.1-0.5l-7.5,1.2c0,0,0,3-0.1,3.7
			c-0.1,0.7-0.7,2-2.2,2.1c-1.5,0.1-1.5-2.1-1.5-2.1s0.1-2.5,0.2-5.4C110.7,32.3,110.7,31.5,110.7,30.8z M15.3,127
			c8.8-5.6,22.4-8.6,22.4-8.6l0-0.4c0,0-0.8,0-1.4,0s-0.4-10.7-0.4-10.7s0-0.3,0-0.9c0-0.9,0.5-1.2,0.5-1.2L37,105l0.1-1.7L26.4,108
			c0,0-0.1,10.6-0.1,11.3c-0.1,0.7-3.7,2.2-5.1,2.3c-1.5,0.1-1.5-2.1-1.5-2.1s-0.6-10.8-0.6-13.6c0-0.7,0-1.5,0.1-2.2
			c0-0.7,0-1.3,0.1-1.9c0.1-1.7,0.1-3,0.1-3.6c0-7.5,5.2-8.8,5.2-8.8s1.1,0.1,1.3,0.5c0.5,1,0.5,16.3,0.5,16.3l4.7-2.1l4.6-2.9
			c0,0,0.1-2.9,0.1-4.6c0-15.2,0.3-16.4,1.6-17.6c0.3-0.3,0.2-0.6-0.6-1c-2.5,0.9-4.8,0.8-10,4.9C14.8,92.2,9.8,94.1,9,94.3
			c0,0,0.1,0,0.2,0l-0.4,0.8c0,0,0.4,0.2,1.7,0.5c1.3,0.3,1.1,1.8,1.1,1.8s0.2,3.2,0.1,6.4c0,0.3-1.4,1.3-1.4,1.3s1.4,1.2,1.4,1.5
			c0,3.5-0.1,15.1-0.1,16.7C11.9,124.2,13.9,128,15.3,127z M123.6,39.6c-0.4,0.1-1.9,0.8-1.9,0.8s-0.6,0.4,0,0.6h12.7l0.3-1l-4-0.1
			c0,0-1,0.1-0.9-0.6c0.1-0.7,0.1-1.9,0.1-1.9s6.8-1.1,7.5-0.7l0.2,2.3c0,0,0.1,0.9-0.7,0.9l-0.9,0.2l-0.1,0.8c0,0,15.2,0,17.5,2.1
			v-1c0,0-2.4-1.8-8.5-2.8c0,0-0.6-0.1-1.1-0.8c0-0.1,0-0.1,0-0.2c0-1-0.1-6.8-0.1-6.8s-0.2-0.4,0.2-0.9l1.2-1.2
			c0,0,0.9-0.4-0.1-0.9l-1.4-1c0,0-0.4-0.2-0.3-0.9c0-0.7,0-4.6,0-4.6s0-0.8,1.3-1.4l6.1-2.1l0.3-1.6c0,0-14.1,4.5-15.9,4l-0.2,1
			c0,0,2.1,0.1,2.1,1.6c0.1,1.5,0.2,10.9,0.2,11c0.1,0.1-5.3,1-7.4,1.9l0.1-2.1l2.4-3.1l-2.1-1.8l0.1-6.2c0,0-0.1-0.8,0.9-1.1
			l1.1-0.5V21l-9.8-0.4c0,0-0.6,0.5-0.2,0.9c0,0,2.3,0.4,2.3,2.2v6.9l-1.5,1.3l1.1,1.1l-0.4,5.7C124.1,38.8,124,39.5,123.6,39.6z
			 M52.4,115.1l-0.9,0.2l-0.1,0.8c0,0,2.9-0.8,6.1-0.7l2.7-2.8c0-1.6-0.4-18.6-0.4-18.6s-0.2-0.4,0.2-0.9l1.3-1.2
			c0,0,0.9-0.4-0.1-0.9l-1.4-1c0,0-0.4-0.2-0.3-0.9c0-0.7,0-18.5,0-18.5l-4.6-6.5c0,0-3.2,2-7.1,5.1l-9.5,7.6c0,0-0.6,0.5-0.2,0.9
			c0,0,2.3,0.4,2.3,2.2l0,12.6l-1.5,1.3l1.1,1.1l0.1,21c0,0-0.1,0.6-0.5,0.8c-0.9,0.5-1.9,0.8-1.9,0.8v0.6c0,0,4.5-1.1,10.5-1.5
			c0.2-0.2-0.2-0.7-0.2-0.7l-0.6-0.1c0,0-0.9-0.2-0.8-0.9c0.1-0.7-0.1-21.3-0.1-21.3c1.6-0.3,5.5-0.5,5.9-0.3l0.4,20.7
			C53.1,114.1,53.1,115.1,52.4,115.1z M46.6,91.9l0.2-2.5l1.6-1.4l-1.5-1.5l0-13.1l2.3-1.8c0,0,3.3-1.2,3.2,9.4c0,1.5,0,9.3,0,9.5
			C52.7,91.1,50.5,90.3,46.6,91.9z M94.9,50.7c0,0-0.2,0.6-0.5,0.3c-0.4-0.2-3-2.1-3-2.1l3.4-1l0.1-0.7c0,0-7.7,1-10.6,2.5
			c-0.5,0.3,0.3,0.6,0.4,0.6l8.4,4.8v2.4c0,0-0.4,1.3-1.2,0.7c-0.9-0.6-4.7-2.5-4.7-2.5s-1.3-0.3-0.9,0.3c0,0,8.5,6.3,16.4,7.9
			c1.1,0.2,0.3-1,0-1.1L99,61.7c0,0-0.9-0.2-1-1.9C98,58.1,98,54,98,54s-0.1-0.7,1.3-2.5c0,0,4.1-4.9,4.1-4.9c0.1,0,0.4-0.5,0.8-0.6
			c0.3-0.1,1.2-0.3,1.2-0.3l0.5-0.8l-7.7,1.5L94.9,50.7z M122.4,42.9c0,0,0.5-0.5,0-0.8c-0.5-0.4-14.8,1.1-16.1,3.3
			c-0.5,1.1-0.4,2.4-0.4,2.4v13.7c0,0-0.5,2.7,2.4,3.1c2.9,0.4,8.8,0.7,10.9,0c0,0,0.3-0.1,0.2-0.9c-0.1-0.8,0-6.8,0-6.8l1.8-1.7
			l-1.8-1.2l-0.1-8.9C119.4,45.2,119.2,43.4,122.4,42.9z M109.9,62.8c-0.4-0.3-0.4-0.9-0.4-0.9s0.2-15.5,0.3-16.3
			c0-0.4,0.2-0.7,0.5-0.8L109.9,62.8z M113.9,53.2l-1.4,1.2l1.4,1.9l0,6.6c0,0-1.6,0.2-2.9,0.1l0.3-18.7l2.8-0.6L113.9,53.2z
			 M139.1,42.4c0.8-0.3,2-0.7,2-0.7l-0.6-0.4l-6.7,0.8c0,0-1.1,0-1.1,1.4l-0.2,19.3c0,0,0.1,2.2-0.6,2.3c-0.7,0.1-2.3-0.1-2.3-0.1
			s-2.3-0.4-2.1-3.8l0.2-3.7l2.8-2.4l-2.6-2.1l0.4-8.4c0,0,0-0.9,3.1-1.4c0,0,0.2-0.3,0-0.6c0,0-7.2-0.8-7.8,1.8l-0.2,8.9l-1.2,1.3
			l1.1,1L123,63c0,0,1,2.9,3.9,3.1c2.9,0.2,11.9-0.3,13.6,1.6l-0.5-0.6c0,0-1.7-1.9-2.1-1.8c0,0-0.6-0.2-0.6-0.8
			c0-0.6,0.1-6.3,0.1-6.3s0.2-0.6,0.7-0.8c0.4-0.2,2.2-1.7,2.2-1.7l-2.3-2.1l0.1-10.5C138.2,43.3,138.2,42.8,139.1,42.4z
			 M150.5,57.4c1.6,0,4.7-0.5,4.9-2.9c0.3-3.8,1.1-10.9-3.4-11.2c-6.8-0.4-8.9-0.4-8.9-0.4l-1.3-0.5l-1.2,0.5c0,0,2.1,1.3,2.1,1.9
			l-0.3,10.6c0,0,0.2,0.6-1.3,1.9c0,0,1.5,1.5,1.5,2.1c0,0.6,0,6.5,0,6.5s0.2,0.5-1,0.7c-1.2,0.2-1.1,0.4-1.1,0.4l0,0.2l10.4,1.2
			l-0.8-1.1l-2.1-0.4c0,0-1,0.3-0.8-2.7c0.2-3,0.1-5.8,0.1-5.8s0.8-0.6,1.7,2.1c0.9,2.7,2.6,9.2,6.7,8.7c4.1-0.5,5.2-3.4,5.2-4.7
			c0-1.3,0-2.5,0-2.5l-0.7-0.3c0,0-1.1,3.5-2.5,3.4c-1.4-0.1-3-2.4-3.1-3.9C154.4,59.1,152.3,57.7,150.5,57.4L150.5,57.4L150.5,57.4
			z M150.9,45.8c0.3,0.4,0.4,0.9,0.5,1.6c0.1,2.1-0.2,7.5-0.2,7.5s0.1,0.5-0.6,1L150.9,45.8z M149.7,56.2c-0.6,0.2-1.4,0.3-2.5,0.2
			c0,0-0.1-4.4,0-4.3c0.1,0.1,1.2-1.1,1.2-1.1l-1.1-0.8l0-4.1c0,0-0.1-1.4,1.3-1.3c0.5,0,1,0.1,1.5,0.3L149.7,56.2z M85.4,114.6
			l4.1,4.8c0.9-1,3.5-2.9,3.5-2.9l0.7-19l3.6-3.7l-4.1-3.2l0.5-24.1l1.9,1l1.4-2.4c0,0-14.6-8.6-14.7-11.9l-1.8,0.8
			c0,0,7.3,8.4,0.1,29.1l-6.6-19.8c-1.2-7.9,1.3-8.8,1.3-8.8l-0.6-1c-9.2,3.4-9.1,3.5-14.3,6.9l-4.5,3.2l1,1.4l3.2-2.1l2.5-1.4
			c0,0,3.9-0.1,3.9,2.6c0,2.7,0,16.8,0,16.8s-1.2,3.3-2.9,4c0,0,2.8,3.4,2.8,4.8l-0.4,20.8c0,0,0.4,2.2-5.4,2.6l-2.1,2.2
			c0,0,11-1.1,16.2,0.8l2.3-2.3l-2.4-2l0.1-23.8l1.9-2.4l-2.3-1.9L74,71.1l5.5,15.2l3.6,2.1l2.6-7c0,0,0.2-1,0.4-2.4l-0.8,32.5
			L85.4,114.6z M105,101.5c0,0,11-1.9,11.1-6.6c0.1-4.7,1.1-23.5,1.1-23.5s-0.1-4.4-6.1-4.8c-6-0.4-11.7-0.8-12.8-1.6
			c0,0-2.2,1.7-1.9,2.8l3.4,1.3l-0.6,16.6l-3.5,2.9l3.4,4.8l-1.2,26.3c0,0,0.2,0.5-1,0.6c-1.2,0.2-1.9,0-1.9,0v1.2
			c0,0,4.9,1,12.6,2.3l0.2-1.9l-3.1-1.6c0,0-0.6-0.4-0.4-2.1C104.6,116.5,105,101.5,105,101.5z M105.9,70.1c0,0,4.3,0.8,4.3,3.2
			c0,2.5-0.5,7.7-0.5,7.7l-1.9,2.6l1.9,2.3v9c0,0,0.3,3.8-4.6,4.6L105.9,70.1z M134.7,98.8l2.9-3.4l-3.1-4.3c0,0,0.8-15.6,0.8-18.2
			c0-2.7,1.5-2.7,1.5-2.7v-0.8l-7.9-1.3l-1.2,25l-2,1.8l2,1.9l-0.8,26.9c-3.1-0.2-3.3-3.2-3.3-3.2l0.6-20.1l1.2-0.8l-1.2-1.3
			l1.4-29.7c-1.4-2.6-10.5-1.8-10.5-1.8c3.6,0.9,3.7,3.1,3.7,3.1l-1.5,25c0,2.4-2.6,4.1-2.6,4.1c1.4,0,2.5,3.4,2.5,3.4l-0.5,20.2
			c-0.1,4.9,18.9,3.1,18.9,3.1v-1c-2.1-0.7-1.9-2.3-1.9-2.3L134.7,98.8z M161.8,111.7l-1.4-1.5c0.1-2.8,0.2-5.5,0.2-7.3
			c-0.1-4.4-1.7-4.1-1.7-4.1C144,96.4,146.1,94,146.1,94l0.2-8.7l1.9-1.9l-1.9-2V74h4.7c3-0.2,2.7,4.1,2.7,4.1l-0.2,11.2l-2.5,0.9
			c0,0,0.6,1.6,0.6,1.5c0-0.2,5.3-0.5,6.9-0.5c1.6,0,1.9-2.4,1.9-2.4l0.7-18.5c-2.4,1.4-23.2-0.2-23.2-0.7l-0.3,1.1l0.8,1.4
			l-0.3,7.8l-2.3,2.4l2.1,3.1c0,0,0.1,1.8,0,5.2c-0.1,3.5,3.2,5.2,3.1,5.1s11.7,4.2,11.7,4.2l-0.2,9l-2.5,2.9l2.5,4l-0.3,5.1
			c0,0-2.9,0.9-6.9,1.2c-4,0.3-4.1-5.4-4.1-5.4l0.6-11.6c0,0,0.7,0.5,4,0.7c2.3,0.1,2.1,5.8,2.1,5.8l1,0.2l0.3-7.7
			c-4.8-1.5-10.5-5.2-11.3-5.6c-0.7-0.4-1.5,0.6-1.5,0.6v21.6l4.5,4.3c11.1-1.1,11.8-1.5,16.6-2.8c2.7-0.8,2.8-3.3,2.6-3.4
			c-0.1-0.1,0-2.5,0.1-5.6L161.8,111.7z M161.7,121.1c-32.1,10.1-44,5-74.2-0.5l-7.1-7l-5.7,4.9c-0.7-0.1-1.3-0.2-2-0.3
			c-42-6.1-65.1,17-65.1,17l9.1-0.1l-1.5,6.5c0,0.1,28.2-20.2,58.6-18.1l6.1,3.9l4-2.3c0.1,0,0.2,0,0.2,0.1
			c40.2,10.9,76.5-1.6,78.2-2.6C164.1,121.6,161.7,121.1,161.7,121.1z M26.2,134.1c-1.2-2.4-2.5-4.7-3.9-6.8
			c0.1-0.1,0.2-0.2,0.4-0.2c0.1-0.1,0.2-0.1,0.3-0.2c0.4-0.2,0.7-0.4,1.1-0.7c0,0.1,0.1,0.2,0.1,0.2c-0.4,0.2-0.7,0.4-1.1,0.7
			c0.7,1.1,1.4,2.2,2,3.4c0.2-0.2,0.4-0.5,0.7-0.7c0,0.1,0.1,0.2,0.1,0.3c-0.2,0.2-0.4,0.5-0.7,0.7c0.5,1,1.1,2,1.5,3.1
			C26.5,133.9,26.3,134,26.2,134.1z M28.6,132.8c-0.1,0-0.2,0.1-0.3,0.1c-0.1,0.1-0.2,0.1-0.3,0.2c-1.1-2.5-2.3-4.9-3.6-7.2
			c0.1-0.1,0.2-0.1,0.4-0.2c0.1-0.1,0.2-0.1,0.3-0.2c0.4-0.2,0.8-0.4,1.2-0.7c0,0.1,0.1,0.2,0.1,0.3c-0.4,0.2-0.8,0.4-1.2,0.7
			c0.5,1,1,1.9,1.5,2.9c0.2-0.2,0.5-0.5,0.7-0.7c0,0.1,0.1,0.2,0.1,0.3c-0.2,0.2-0.5,0.5-0.7,0.7c0.6,1.2,1.1,2.3,1.6,3.6
			c0.3-0.2,0.7-0.3,1-0.5c0,0.1,0.1,0.2,0.1,0.3C29.2,132.5,28.9,132.7,28.6,132.8z M31.7,130.6c0,0.1-0.1,0.2-0.1,0.2
			c-0.1,0.2-0.1,0.3-0.2,0.4c-0.1,0.1-0.1,0.2-0.2,0.3c0,0.1-0.1,0.1-0.1,0.2c0,0-0.1,0.1-0.2,0.1c-0.1,0-0.1,0-0.2,0.1
			c-0.1,0-0.1,0-0.2,0c-0.1,0-0.2,0-0.3,0c-0.1,0-0.2-0.1-0.4-0.1c-0.1,0-0.1,0-0.2-0.1c0,0-0.1,0-0.1-0.1c0,0-0.1-0.1-0.1-0.1
			c-0.2-0.5-0.4-1-0.6-1.5c0,0,0-0.1,0-0.1c0,0,0-0.1,0-0.1c0.1-0.1,0.2-0.2,0.3-0.3c0.1,0.1,0.3,0.2,0.4,0.4
			c0.2,0.4,0.3,0.8,0.5,1.2c0.1,0.1,0.1,0.2,0.2,0.3c0.1,0.1,0.1,0.1,0.2,0.1c0.1,0,0.1,0,0.2,0c0.1,0,0.1,0,0.1,0
			c0,0,0.1,0,0.1-0.1c0,0,0.1-0.1,0.1-0.2c0-0.1,0-0.2,0.1-0.3c0-0.1,0-0.2-0.1-0.4c-0.1-0.3-0.2-0.7-0.4-1c0,0,0-0.1-0.1-0.1
			s0-0.1-0.1-0.1c-0.9-0.9-1.8-1.7-2.8-2.5c0,0-0.1-0.1-0.1-0.1c0,0-0.1-0.1-0.1-0.1c-0.2-0.4-0.4-0.8-0.6-1.2c0-0.1,0-0.2,0-0.2
			c0.1-0.1,0.1-0.2,0.1-0.3c0-0.1,0.1-0.2,0.1-0.2c0-0.1,0.1-0.1,0.1-0.2c0.1-0.1,0.1-0.2,0.2-0.3c0.1-0.1,0.1-0.1,0.2-0.2
			c0.1,0,0.1-0.1,0.2-0.1c0.1,0,0.2,0,0.2,0c0.1,0,0.2,0,0.3,0c0.1,0,0.3,0,0.5,0.1c0.1,0,0.1,0,0.2,0c0,0,0.1,0,0.1,0.1
			c0,0,0.1,0.1,0.1,0.1c0.2,0.5,0.4,1,0.6,1.4c0,0,0,0.1,0,0.1c0,0,0,0.1,0,0.1c-0.1,0.1-0.2,0.2-0.4,0.3c-0.1-0.1-0.3-0.2-0.4-0.3
			c-0.2-0.4-0.4-0.8-0.5-1.2c-0.1-0.1-0.1-0.2-0.2-0.3c-0.1-0.1-0.1-0.1-0.2-0.1c-0.1,0-0.1,0-0.2,0c-0.1,0-0.1,0-0.1,0
			c0,0-0.1,0-0.1,0.1c0,0-0.1,0.1-0.1,0.2c0,0.1,0,0.2,0,0.3c0,0.1,0,0.2,0.1,0.3c0.1,0.3,0.3,0.6,0.4,0.9c0,0,0,0.1,0.1,0.1
			c0,0,0.1,0.1,0.1,0.1c1,0.8,1.9,1.7,2.8,2.6c0,0,0,0.1,0.1,0.1c0,0,0,0.1,0.1,0.1c0.2,0.4,0.3,0.9,0.4,1.3
			C31.7,130.5,31.7,130.5,31.7,130.6z M33.7,130.1c0,0,0,0.1-0.1,0.1c-0.1,0.1-0.1,0.1-0.2,0.2c0,0-0.1,0.1-0.1,0.1
			c0,0-0.1,0.1-0.1,0.1c0,0,0,0,0,0c0,0-0.1,0-0.1,0.1c-0.7-2.5-1.6-5-2.6-7.5c-0.3,0.1-0.6,0.3-0.9,0.4c0-0.1-0.1-0.2-0.1-0.3
			c0.8-0.4,1.7-0.8,2.6-1.1c0,0.1,0.1,0.2,0.1,0.3c-0.3,0.1-0.6,0.3-0.9,0.4c0.9,2.4,1.7,4.8,2.4,7.2C33.7,130,33.7,130,33.7,130.1z
			 M35.7,129.2c0,0,0,0.1-0.1,0.1c-0.1,0.1-0.1,0.1-0.2,0.2c0,0-0.1,0.1-0.1,0.1c0,0-0.1,0.1-0.1,0.1c0,0-0.1,0.1-0.1,0.1
			c-0.6-2.6-1.4-5.3-2.4-7.9c0.3-0.1,0.5-0.2,0.8-0.3c0.9,2.5,1.6,5,2.2,7.5C35.7,129.1,35.7,129.2,35.7,129.2z M37.9,128.5
			c-0.1,0-0.1,0.1-0.2,0.1c0,0-0.1,0-0.1,0.1c0,0-0.1,0-0.1,0.1c0,0,0,0,0,0c-0.1-0.4-0.3-0.7-0.4-1.1c-0.8-2.1-1.7-4.3-2.8-6.4
			c0.3-0.1,0.5-0.2,0.8-0.3c0.2,0.4,0.4,0.8,0.6,1.2c0.7,1.6,1.4,3.2,1.9,4.8c0-0.2,0-0.4,0-0.6c-0.2-2-0.4-3.9-0.6-5.9
			c0.1,0,0.2,0,0.3-0.1c0.3,2.7,0.6,5.3,0.7,7.9c0,0,0,0.1,0,0.1C37.9,128.5,37.9,128.5,37.9,128.5z M41.2,127.7
			c-0.2-0.8-0.5-1.6-0.7-2.3c-0.4,0.2-0.9,0.5-1.3,0.7c0,0.7,0.1,1.5,0.1,2.2c-0.1,0-0.2,0.1-0.3,0.1c-0.1-2.6-0.2-5.2-0.5-7.8
			c0,0,0-0.1,0-0.1c0-0.1,0-0.1,0.1-0.1c0.1,0,0.2-0.1,0.2-0.1c0.1,0,0.2-0.1,0.2-0.1c0,0,0.1,0,0.1-0.1c0,0,0.1,0,0.1-0.1
			c0,0,0,0,0,0c0.2,0.4,0.3,0.9,0.5,1.3c0.8,2.2,1.5,4.3,2.1,6.3C41.7,127.5,41.4,127.6,41.2,127.7z M43.4,127.2
			c-0.1,0-0.2,0-0.3,0.1c-0.1,0-0.3,0.1-0.4,0.1c-0.3-2.5-0.7-5.1-1.2-7.8c0.3,0,0.6-0.1,0.9-0.1c0.5,2.6,0.8,5.1,1.1,7.5
			c0.4-0.1,0.9-0.1,1.3-0.2c0,0.1,0,0.2,0,0.3C44.3,127,43.8,127.1,43.4,127.2z M39.2,125.7c0.4-0.2,0.8-0.4,1.2-0.7
			c-0.5-1.4-1-2.8-1.5-4.2C39,122.5,39.1,124.1,39.2,125.7z"/>
	</g>
</g>
</svg>
