<?xml version="1.0" encoding="utf-8"?>
<!-- Generator: Adobe Illustrator 19.2.1, SVG Export Plug-In . SVG Version: 6.00 Build 0)  -->
<svg version="1.1" id="Calque_1" xmlns="http://www.w3.org/2000/svg" xmlns:xlink="http://www.w3.org/1999/xlink" x="0px" y="0px"
	 viewBox="0 0 118.5 86.3" style="enable-background:new 0 0 118.5 86.3;" xml:space="preserve">
<metadata><?xpacket begin="﻿" id="W5M0MpCehiHzreSzNTczkc9d"?>
<x:xmpmeta xmlns:x="adobe:ns:meta/" x:xmptk="Adobe XMP Core 5.6-c111 79.158366, 2015/09/25-01:12:00        ">
   <rdf:RDF xmlns:rdf="http://www.w3.org/1999/02/22-rdf-syntax-ns#">
      <rdf:Description rdf:about=""/>
   </rdf:RDF>
</x:xmpmeta>
                                                                                                    
                                                                                                    
                                                                                                    
                                                                                                    
                                                                                                    
                                                                                                    
                                                                                                    
                                                                                                    
                                                                                                    
                                                                                                    
                                                                                                    
                                                                                                    
                                                                                                    
                                                                                                    
                                                                                                    
                                                                                                    
                                                                                                    
                                                                                                    
                                                                                                    
                                                                                                    
                           
<?xpacket end="w"?></metadata>
<style type="text/css">
	.st0{fill:#FFFFFF;}
	.st1{opacity:0.1;}
	.st2{opacity:0.2;}
</style>
<g>
	<g>
		<g>
			<path d="M17.7,84.2c-0.4,0-0.9-0.2-1.2-0.5c-0.7-0.7-0.6-1.7-0.5-3.4c0-0.6,0.1-1.4,0.1-2.1c0-1.4,0-2.7,24-7.8
				c-1.2-1.8-1.6-5-1.7-10.5c-2.1,3.6-4.1,3.9-4.8,3.9c-1.6,0-2.8-0.4-3.7-1.2c-0.5-0.5-0.8-1.1-1-1.7c-1.8,4.1-4.4,8.5-6.7,8.5
				c-6.7,0-7.6-3.4-7.6-17c0-9.2,0.3-17.2,0.9-23.9c-5.1,3-8.2,6.1-9.7,7.6c-1.1,1.1-1.5,1.5-2.2,1.5c-2.6,0-3.5-4.8-3.5-6.9
				c0-3.1,7.4-8.6,16.7-12.5c1.9-10.8,5-16.3,9.3-16.3c2.1,0,3.6,1.4,3.7,1.6l0.6,0.7L30,4.9c0,0-1.3,2.6-2.6,9.6
				c2.2-0.6,4.5-1.1,6.8-1.5c1.3-5.1,3-10,3-10.1l0.2-0.7l0.7-0.2c0,0,1.1-0.2,2.3-0.2c4,0,4.3,2.4,4.3,3.2c0,1.9-0.6,4.2-1.3,6.7
				c0.9-0.1,1.8-0.1,2.6-0.2c2.1-6.6,3-7.7,4.4-7.7c1.8,0,7.1,0,7.1,3.1c0,0.8-0.4,1.7-1.3,4.1c0,0.1-0.1,0.2-0.1,0.3
				C80.8,11,99,7.5,110.2,0.9c1-0.6,1.5-0.9,2.1-0.9h0.5l0.4,0.4c1.3,1.3,5.4,5.8,5.4,8.3c0,1.9-6.7,4.6-13.2,6.3
				c-8.6,2.2-24.6,4.8-52.4,4.8c-3.5,10.6-5.5,22.4-6.1,35.1c0.7-3,1.6-7.1,2.5-12.3c-0.1-0.8-0.1-1.5-0.1-2.3
				c0-12.6,10.9-17.4,12.8-17.4c2,0,6,1.7,6,5.7c0,1,0,2,0,3c1.2-2,2.4-4,3.4-5.7c3.1-5.2,3.6-6.1,4.7-6.1c2.5,0,6.5,1.1,6.5,4
				c0,0.3-0.1,0.5-0.2,0.9c0.7-1,1.1-1.1,1.6-1.1c3.4,0,7.2,2.4,7.2,4.7c0,0.5-0.2,0.7-0.7,1.4C83.5,39.3,82,49.5,82,56.3
				C82,67.8,84.2,72,86.2,72c3.1,0,4.9-3,6.1-4.9c0.8-1.3,1.3-2.2,2.4-2.2c1.8,0,4.3,3.1,4.3,4.8c0,2.1-7.1,10.4-13.4,10.4
				c-2.8,0-5.2-1-7.1-2.9c-4.6-4.6-5.5-13.7-5.7-19.5c-1.4,1.6-3.1,3.1-4.7,3.1c-1,0-1.9-0.4-2.5-1.3c-1.1-1.5-1.2-4.2-1-7.1
				c-2.9,8.8-7,14.1-9.8,14.1c-2.2,0-3.5-0.6-4.3-1.7c-0.5,1.3-1,2.6-1.6,3.8c8.9-1.8,16.2-3.2,16.3-3.2l1.9-0.4L65,73.7h-1
				c-6.2,0-30.2,6.4-40.5,9.1C18.2,84.2,18,84.2,17.7,84.2z M56.5,51.4c-0.3,2.4-0.4,3.9-0.5,4.9c0.6-0.9,1.4-2.4,2.2-5.1
				C57.6,51.3,57,51.4,56.5,51.4z M26,23.7c-1.1,9.1-1.7,19.9-1.9,32.4c1-3,2.1-6.8,3-10C31.7,29.9,33,26.8,35,26.8
				c1.4,0,3.2,0.6,4.4,3.2h1.5c0.9-3.4,1.7-6.7,2.6-9.9c-0.8,0.1-1.6,0.1-2.4,0.2c-0.3,1.7-0.5,3.2-0.5,4.6c0,1-0.7,2.2-2.5,2.2
				c-0.8,0-1.7-0.2-2.4-0.4c-0.2-0.1-0.4-0.1-0.6-0.1c0,0,0,0,0,0c-0.6,0-1.3-0.3-1.7-0.8c-0.7-0.8-1-2.1-0.9-4.1
				C30.3,22.4,28.1,23,26,23.7z M59.6,37.8c-0.5,0.8-1.5,3-1.9,5.1l-0.1,1c0.6-0.2,1.5-0.7,2.7-1.9c0.7-4.5,0.9-8,0.9-9.5
				c-1.1,0.3-1.7,1.1-2.1,1.7c0.7,0.5,1.4,1.3,1.4,2.4v1.3H59.6z M39.5,32.5c-0.4,1.3-1.5,5.4-2.1,10.9c0.9-3.4,1.9-7.3,2.8-10.8
				c0-0.1,0-0.2,0.1-0.3L39.5,32.5z M81.1,27.2c-1.4,2.5-3.7,6.7-5.3,12.2c0.1-0.2,0.1-0.3,0.2-0.5C78.4,33,80,29.4,81.1,27.2z"/>
		</g>
		<g>
			<path d="M36.8,86.3c-0.5,0-0.9-0.2-1.2-0.5c-0.7-0.8-0.7-2.2-0.5-4.3c0-0.5,0.1-0.9,0.1-1.2c0-1,0-1.9,10.7-4.5
				c4.8-1.2,10.6-2.4,12.4-2.4c0.6,0,1.3,0.3,1.6,1.2c0.1,0.3,0.2,0.8,0.2,1.3c0,0.1-0.2,5.9-2.8,5.9c-1.5,0-9.3,1.9-14,3.1
				C38.5,86,37.2,86.3,36.8,86.3z"/>
		</g>
	</g>
</g>
<g>
	<path class="st0" d="M52.1,18.5c54.2,0,65.2-9.5,65.2-9.9c0-2.2-5-7.4-5-7.4c-1.5,0-11.9,11.1-58.1,11.3c1.2-3.1,2.1-5,2.1-5.7
		c0-1.1-1.6-1.8-5.8-1.8c-0.8,0-2,3.1-3.4,7.7c-1.8,0.1-3.6,0.2-5.4,0.4c0.9-3.1,1.7-6,1.7-8.2c0-2.7-5-1.7-5-1.7s-1.8,5.4-3.1,10.8
		c-3.4,0.6-6.5,1.3-9.4,2.2c1.5-8.9,3.1-12,3.1-12S21.5-3.1,17.9,19C7.1,23.4,1.3,28.8,1.3,30.6c0,2.4,1,5.6,2.2,5.6
		c0.7,0,4.4-5.3,13.5-10.1c-0.7,6.7-1.1,15.3-1.1,26.2c0,13.9,1.1,15.7,6.3,15.7c2.3,0,7-9.7,7.7-13.7c0,5.2-0.5,8.2,3.8,8.2
		c3.2,0,6.1-8.7,6.1-8.7c0,13.4,0.3,16.6,3.9,17c-12.7,2.7-26.3,5.8-26.3,7.2c0,2.6-0.4,4.8,0.3,4.8c0.7,0,38.1-10.6,46.4-10.6
		l1.4-5.7c0,0-9.1,1.7-19.4,3.8c2.5-2.3,4.7-10.7,4.7-10.7c0,4.2,0.8,5.5,4.1,5.5c2.4,0,7.8-7.1,10.4-20.2c1.7-1.6,2.8-3,2.8-3
		s-5.1,17.5,0.1,17.5c2.5,0,5.9-5.5,5.9-6.3c0,4.2-0.7,25.7,11.5,25.7c5.8,0,12.1-8.1,12.1-9.2s-2-3.6-3.1-3.6s-3,7.1-8.5,7.1
		c-3.5,0-5.5-5.7-5.5-17c0-17.6,9.2-27.6,9.2-28c0-1.3-3-3.4-5.9-3.4c-1.4,0-10.6,24.4-11.4,24.4c1.1-14.6,8.8-24.4,8.8-25.5
		c0-2-3.5-2.7-5.2-2.7c-0.8,0-5,8.4-9.7,15.2c0.2-2.4,0.3-5,0.3-7.8c0-3.3-3.6-4.4-4.7-4.4c-1.1,0-11.5,4.2-11.5,16.1
		c0,0.7,0,1.5,0.1,2.3C50,46.4,47.1,62,45.4,62c0-20.2,3.6-34.4,6.6-43.4C52,18.5,52,18.5,52.1,18.5z M54.9,58.5
		c-0.5,0-0.1-4.2,0.5-8.4c0.3,0.1,0.7,0.1,1,0.1c1.2,0,2.5-0.5,3.8-1.2C58.9,54.1,57.1,58.5,54.9,58.5z M62.1,31.1
		c0.6,0,0.3,5.5-0.6,11.6c-1.6,1.6-3.2,2.7-4.6,2.7c-0.5,0-0.6-0.5-0.6-1.3c0.1-0.5,0.1-1,0.2-1.3c0.6-2.6,2.1-6.1,2.7-6.1
		c0-1.1-1.7-1.8-1.7-1.8S58.3,31.1,62.1,31.1z M35.6,52.5c0-11.6,2.6-21.1,3-21.1c-0.1,0.1-0.8-3.2-3.6-3.2C32.2,28.1,25,62,22.8,62
		c0-17.7,0.9-30.4,2-39.2c2.7-1,5.8-1.8,9.2-2.5c-0.4,3-0.1,5.2,1.3,5.2c0.6,0,4.1,1.4,4.1-0.4c0-1.9,0.3-3.8,0.7-5.8
		c1.7-0.2,3.4-0.4,5.2-0.5C41.4,32.8,36.8,52.5,35.6,52.5z"/>
	<path class="st0" d="M58.3,74.6c-3.2,0-21.9,4.3-21.9,5.6c0,1.3-0.6,4.8,0.3,4.8c1,0,17.9-4.5,20.5-4.5
		C58.3,80.4,59.4,74.6,58.3,74.6z"/>
</g>
<path class="st1" d="M54.1,12.6c0,0-1.8,3.6-2.1,5.9c-0.1,0,1.8,0,1.8,0s1.8-5.9,2.3-5.9H54.1z"/>
<path class="st1" d="M24.8,22.7c0,0-5.9,2-7.8,3.4c-0.1-0.1-0.2,2.4-0.2,2.4s7.4-3.5,7.7-3.1L24.8,22.7z"/>
<path class="st2" d="M50.6,42.6c0,0,0.7,7.1,4.7,7.4L55,52.4c0,0-5.1-1.3-5.1-6.2L50.6,42.6z"/>
</svg>
