<?xml version="1.0" encoding="utf-8"?>
<!-- Generator: Adobe Illustrator 19.2.1, SVG Export Plug-In . SVG Version: 6.00 Build 0)  -->
<svg version="1.1" id="Calque_1" xmlns="http://www.w3.org/2000/svg" xmlns:xlink="http://www.w3.org/1999/xlink" x="0px" y="0px"
	 viewBox="0 0 306 192.9" style="enable-background:new 0 0 306 192.9;" xml:space="preserve">
<metadata><?xpacket begin="﻿" id="W5M0MpCehiHzreSzNTczkc9d"?>
<x:xmpmeta xmlns:x="adobe:ns:meta/" x:xmptk="Adobe XMP Core 5.6-c111 79.158366, 2015/09/25-01:12:00        ">
   <rdf:RDF xmlns:rdf="http://www.w3.org/1999/02/22-rdf-syntax-ns#">
      <rdf:Description rdf:about=""/>
   </rdf:RDF>
</x:xmpmeta>
                                                                                                    
                                                                                                    
                                                                                                    
                                                                                                    
                                                                                                    
                                                                                                    
                                                                                                    
                                                                                                    
                                                                                                    
                                                                                                    
                                                                                                    
                                                                                                    
                                                                                                    
                                                                                                    
                                                                                                    
                                                                                                    
                                                                                                    
                                                                                                    
                                                                                                    
                                                                                                    
                           
<?xpacket end="w"?></metadata>
<style type="text/css">
	.st0{opacity:0.3;}
	.st1{fill:#CBA55E;}
	.st2{fill:#FFFFFF;}
</style>
<g class="st0">
	<g>
		<path d="M63.5,74.3c0,6.2,0,12.4,0,18.6c-2.5,0.3-4.9,0.6-7.4,1c0-5.2,0-10.4,0-15.5c-2.6,0.4-5.2,0.7-7.8,1.1
			c0,21.9,0,43.8,0,65.7c2.6-0.4,5.2-0.8,7.8-1.1c0-5.1,0-10.1,0-15.2c2.5-0.3,4.9-0.7,7.4-1c0,6.1,0,12.2,0,18.3
			c-1.4,1.6-2.9,3.2-4.3,4.8c-4.6,0.6-9.2,1.3-13.9,2c-1.4-1.2-2.9-2.4-4.3-3.6c0-23.9,0-47.9,0-71.8c1.4-1.6,2.9-3.3,4.3-4.9
			c4.6-0.7,9.2-1.4,13.9-2C60.6,71.9,62,73.1,63.5,74.3z"/>
	</g>
	<g>
		<path d="M88.6,67.3c1.4,1.3,2.9,2.5,4.3,3.8c0,23.9,0,47.9,0,71.8c-1.4,1.5-2.9,3.1-4.3,4.6c-4.6,0.4-9.3,0.9-13.9,1.4
			c-1.4-1.2-2.9-2.5-4.3-3.7c0-23.9,0-47.9,0-71.8c1.4-1.6,2.9-3.2,4.3-4.7C79.3,68.2,83.9,67.7,88.6,67.3z M77.6,75.7
			c0,21.9,0,43.8,0,65.7c2.6-0.3,5.2-0.6,7.9-0.8c0-21.9,0-43.8,0-65.7C82.8,75.2,80.2,75.4,77.6,75.7z"/>
	</g>
	<g>
		<path d="M116.9,72.5c-1.6,0.1-3.3,0.2-4.9,0.3c0,21.9,0,43.8,0,65.7c1.6-0.1,3.3-0.2,4.9-0.3c0,2.4,0,4.9,0,7.3
			c-1.6,0.1-3.3,0.2-4.9,0.3c-2.4,0.2-4.9,0.3-7.3,0.5c-1.6,0.1-3.3,0.2-4.9,0.4c0-2.4,0-4.9,0-7.3c1.6-0.1,3.3-0.3,4.9-0.4
			c0-21.9,0-43.8,0-65.7c-1.6,0.1-3.3,0.2-4.9,0.4c0-2.4,0-4.9,0-7.3c5.7-0.5,11.4-0.8,17.2-1.2C116.9,67.6,116.9,70,116.9,72.5z"/>
	</g>
	<g>
		<path d="M137.8,101.7c0-12.5,0-25,0-37.6c2.4-0.1,4.9-0.1,7.3-0.2c0,26.8,0,53.6,0,80.4c-2.4,0-4.9,0.1-7.3,0.2c0-0.1,0-0.2,0-0.3
			c-2.3-12.7-4.5-25.4-6.8-38c0,12.9,0,25.7,0,38.6c-2.4,0.1-4.9,0.2-7.3,0.3c0-26.8,0-53.6,0-80.4c2.2-0.1,4.3-0.2,6.5-0.3
			c0.3-0.1,0.6-0.1,0.9-0.1C133.4,76.7,135.6,89.2,137.8,101.7z"/>
	</g>
	<g>
		<path d="M197.6,69.1c0,6.2,0,12.4,0,18.6c-2.5-0.1-5-0.2-7.4-0.3c0-5.2,0-10.4,0-15.5c-2.6-0.1-5.3-0.2-7.9-0.3
			c0,21.9,0,43.8,0,65.7c2.6,0.1,5.3,0.2,7.9,0.3c0-5.1,0-10.1,0-15.2c2.5,0.1,5,0.2,7.4,0.3c0,6.1,0,12.2,0,18.3
			c-1.4,1.3-2.9,2.7-4.3,4c-4.7-0.2-9.3-0.4-14-0.5c-1.5-1.4-2.9-2.9-4.4-4.3c0-23.9,0-47.9,0-71.8c1.5-1.4,2.9-2.8,4.4-4.1
			c4.7,0.1,9.3,0.3,14,0.5C194.7,66.1,196.2,67.6,197.6,69.1z"/>
	</g>
	<g>
		<path d="M222.8,66.5c1.4,1.5,2.9,3.1,4.3,4.6c0,23.9,0,47.9,0,71.8c-1.4,1.3-2.9,2.6-4.3,3.9c-4.6-0.4-9.3-0.7-13.9-1
			c-1.4-1.5-2.9-3-4.3-4.5c0-23.9,0-47.9,0-71.8c1.4-1.3,2.9-2.6,4.3-4C213.5,65.8,218.1,66.1,222.8,66.5z M211.8,73
			c0,21.9,0,43.8,0,65.7c2.6,0.2,5.3,0.4,7.9,0.6c0-21.9,0-43.8,0-65.7C217.1,73.4,214.4,73.2,211.8,73z"/>
	</g>
	<g>
		<path d="M251.1,76.7c-1.6-0.2-3.3-0.4-4.9-0.6c0,21.9,0,43.8,0,65.7c1.6,0.2,3.3,0.4,4.9,0.6c0,2.4,0,4.9,0,7.3
			c-1.6-0.2-3.3-0.4-4.9-0.6c-2.4-0.3-4.9-0.5-7.3-0.8c-1.6-0.2-3.3-0.3-4.9-0.5c0-2.4,0-4.9,0-7.3c1.6,0.2,3.3,0.3,4.9,0.5
			c0-21.9,0-43.8,0-65.7c-1.6-0.2-3.3-0.3-4.9-0.5c0-2.4,0-4.9,0-7.3c5.7,0.6,11.4,1.2,17.1,1.9C251.1,71.8,251.1,74.3,251.1,76.7z"
			/>
	</g>
	<g>
		<path d="M271.9,109.6c0-12.5,0-25,0-37.6c2.4,0.4,4.8,0.7,7.3,1.1c0,26.8,0,53.6,0,80.4c-2.4-0.4-4.8-0.8-7.3-1.1
			c0-0.1,0-0.2,0-0.3c-2.2-13.1-4.5-26.2-6.7-39.2c0,12.9,0,25.7,0,38.6c-2.4-0.3-4.9-0.7-7.3-1c0-26.8,0-53.6,0-80.4
			c2.2,0.3,4.3,0.6,6.5,0.9c0.3,0,0.6,0,0.9,0C267.5,83.9,269.7,96.7,271.9,109.6z"/>
	</g>
</g>
<g>
	<path class="st1" d="M145.6,192.9"/>
</g>
<g>
	<path class="st2" d="M128.6,29.1c-2.3-2.7-3.4-5.9-3.2-9.6c0-2.1,0.6-4.3,1.6-6.6c1-2.3,2.4-4.4,4.1-6.3c1.7-1.9,3.8-3.5,6.3-4.8
		c2.5-1.3,5.1-1.9,7.8-1.9c2.9,0,5.1,0.7,6.8,2.2c1.6,1.4,2.5,3.1,2.5,5c0,1.7-0.7,3.3-2,4.6c-1.3,1.4-2.8,2-4.7,2
		c-3.6,0-5.2-2.1-5.1-4.8c0-0.7,0.3-1.4,0.8-2.1c1.3-1.5,2.8-0.5,2,1.1c-0.4,0.5-0.6,0.9-0.6,1.3c0,1.3,0.9,2.3,3,2.3
		c1.2,0,2.2-0.5,3.1-1.3c0.9-0.9,1.3-1.8,1.3-3c0-1.4-0.6-2.6-1.8-3.6c-1.3-1.1-3-1.6-5.3-1.6c-4.9,0-9.5,2.5-12.5,5.9
		c-3,3.4-4.8,7.7-5,11.4c-0.1,3,0.8,5.6,2.7,8c1.9,2.3,4.3,3.5,7.4,3.5c2.4,0,4.4-0.7,6.1-2.2c1.7-1.4,2.6-3.1,2.8-4.9
		c0.2-1.3-0.1-2.4-0.9-3.3c-0.8-0.9-1.8-1.4-3.1-1.4c-2.3,0-3.7,1.2-3.9,2.6c-0.1,1.8-2.2,1.8-2.1,0c0-1.3,0.7-2.4,1.8-3.4
		c1.2-1,2.7-1.5,4.4-1.5c1.9,0,3.5,0.7,4.6,2.2c1.1,1.4,1.6,3.1,1.3,5c-0.4,2.3-1.6,4.5-3.6,6.3s-4.6,2.8-7.5,2.8
		C133.9,33.1,130.9,31.8,128.6,29.1z"/>
	<path class="st2" d="M151.7,26.9c-0.4,0.8-0.9,1.1-1.6,1c-0.5,0-0.8-0.3-0.8-0.8c0-0.2,0-0.4,0.2-0.6L160,3.6
		c0.7-1.5,2.9-0.9,2,0.9l-4.1,8.2c0.7-0.6,1.4-0.9,2-0.9c1.9,0,3.1,1.2,3.1,3.2c0,0.7-0.2,1.5-0.6,2.3l-3,6.4
		c-0.2,0.5-0.4,1-0.4,1.4c0,0.6,0.4,0.9,1.2,0.9c0.9,0,1.6-0.4,2.3-1.4c0.7-0.9,0.7-1.1,1.1-1.9c0.3-0.6,0.8-0.8,1.4-0.5
		c0.6,0.2,0.8,0.7,0.6,1.3c-0.5,1.1-1.2,2.1-2.1,3.1c-0.9,1-2,1.5-3.2,1.5c-2.3,0-3.4-1-3.4-3.1c0-0.7,0.2-1.5,0.6-2.4l3-6.4
		c0.2-0.6,0.4-1.1,0.4-1.4c0-0.7-0.5-1-1.4-1c-1.4,0-2.5,1.4-3.2,2.7L151.7,26.9z"/>
	<path class="st2" d="M174.9,14.7c0,0.6-0.1,1.2-0.3,1.8c-1.2,3.2-3.2,4.9-5.8,4.9c-0.2,0-0.7,0-1.2-0.2c-0.5-0.2-0.9,0-1.1,0.5
		c-0.5,1.1-0.7,1.9-0.7,2.4c0,1.3,0.8,2,2.5,2c2.1,0,4.1-1.7,4.9-3.3c0.8-1.5,2.6-0.5,1.9,0.9c-0.6,1.2-1.5,2.3-2.8,3.2
		c-1.3,0.9-2.6,1.4-4.1,1.4c-2.8,0-4.8-1.4-4.8-4c0-0.9,0.3-2,0.9-3.2l2.2-4.7c1.4-3,3.1-4.5,5.1-4.5S174.9,12.9,174.9,14.7z
		 M171.8,14c-1.1-0.2-2.1,0.8-3,2.8l-0.5,1.2c-0.3,0.7,0,1.1,0.8,1.1c1.3,0,2.3-0.9,3.1-2.8C172.8,14.9,172.7,14.1,171.8,14z"/>
	<path class="st2" d="M179.3,10.3c0.8-1.5,2.8-0.7,2,0.9c-0.3,0.7,0,1,0.5,1l3.5-0.1c1.7,0,2,1.3,1.1,2.2l-5.6,6.5
		c1,0.6,1.5,2,1.5,4.1c0,1.8-0.6,3.6-1.7,5.7c-1.1,2.1-2.6,3.9-4.5,5.5c-1.9,1.5-3.9,2.3-5.8,2.3c-3.6,0-5.4-2-5.4-4.5
		c0-1.1,0.4-2.1,1.2-3c0.8-0.9,1.9-1.4,3.2-1.5c1.6,0,1.6,2.1,0,2.1c-1.4,0.1-2.2,1.3-2.2,2.4c0,1.3,1,2.3,3.2,2.3
		c1.5,0,3.1-0.7,4.6-2c1.6-1.3,2.8-2.8,3.7-4.6c0.9-1.8,1.4-3.3,1.4-4.7c0-1.8-0.5-2.7-1.4-2.7c-0.7,0-1.4-0.6-0.1-2.1l5-5.9h-1.6
		c-0.5,0-1.1-0.2-1.7-0.5l-2.4,4.8l-2.5,5.2c-0.5,0.7-1,0.9-1.6,0.7c-0.6-0.3-0.7-0.8-0.3-1.7L179.3,10.3z"/>
</g>
<g>
	<g>
		<g>
			<path class="st2" d="M160.9,172.4l-18.7,4.2c0,0,2.9,8.9,11.9,7.2C163.1,182.1,160.9,172.4,160.9,172.4z"/>
		</g>
		<g>
			<path class="st2" d="M156.8,171.4l9-1.7c0,0-1.7-5.8-6.1-4.7C155.3,166,156.8,171.4,156.8,171.4z"/>
		</g>
		<g>
			<polygon class="st2" points="151.6,185.9 155.9,185.9 152.7,188.2 			"/>
		</g>
	</g>
	<g>
		<path class="st2" d="M164.1,166.4l0.6,3.5l5.2-1l-0.3-1.1C169.6,167.8,164.5,169.1,164.1,166.4z"/>
	</g>
</g>
<g>
	<g>
		<g>
			<path class="st2" d="M129.9,176.4l-18.7,4.2c0,0,2.9,8.9,11.9,7.2C132.1,186.1,129.9,176.4,129.9,176.4z"/>
		</g>
		<g>
			<path class="st2" d="M125.8,175.4l9-1.7c0,0-1.7-5.8-6.1-4.7C124.3,170,125.8,175.4,125.8,175.4z"/>
		</g>
		<g>
			<polygon class="st2" points="120.6,189.9 124.9,189.9 121.7,192.2 			"/>
		</g>
	</g>
	<g>
		<path class="st2" d="M133.1,170.4l0.6,3.5l5.2-1l-0.3-1.1C138.6,171.8,133.5,173.1,133.1,170.4z"/>
	</g>
</g>
<g>
	<g>
		<g>
			<path class="st2" d="M191.9,176.4l-18.7,4.2c0,0,2.9,8.9,11.9,7.2C194.1,186.1,191.9,176.4,191.9,176.4z"/>
		</g>
		<g>
			<path class="st2" d="M187.8,175.4l9-1.7c0,0-1.7-5.8-6.1-4.7C186.3,170,187.8,175.4,187.8,175.4z"/>
		</g>
		<g>
			<polygon class="st2" points="182.6,189.9 186.9,189.9 183.7,192.2 			"/>
		</g>
	</g>
	<g>
		<path class="st2" d="M195.1,170.4l0.6,3.5l5.2-1l-0.3-1.1C200.6,171.8,195.5,173.1,195.1,170.4z"/>
	</g>
</g>
<g>
	<path class="st2" d="M7.8,108.9c0,1.1-0.8,2.3-2,3.5l-2.1,2.3h4.4v2.1H0.3V115l3.8-4c0.6-0.6,1-1.3,1-1.8c0-0.6-0.4-1-1.2-1
		c-0.9,0-1.9,0.5-2.9,1.3l-1-1.9c1.3-1,2.8-1.6,4.3-1.6C6.3,106.1,7.8,107.2,7.8,108.9z"/>
	<path class="st2" d="M21.3,111.5c0,3.4-1.7,5.3-4.6,5.3c-3,0-4.7-1.9-4.7-5.3c0-3.4,1.7-5.3,4.7-5.3
		C19.6,106.2,21.3,108.1,21.3,111.5z M14.7,111.5c0,2.4,0.6,3.4,1.9,3.4c1.3,0,1.9-1,1.9-3.4c0-2.4-0.6-3.4-1.9-3.4
		C15.3,108.1,14.7,109.1,14.7,111.5z"/>
</g>
<g>
	<path class="st2" d="M290.1,117.7v-8.4h-1.9v-2.1h4.6v10.5H290.1z"/>
	<path class="st2" d="M305.8,108l-1,1.9c-0.6-0.4-1.4-0.7-2.2-0.7c-1.7,0-2.5,1.1-2.5,2.8c0.5-0.7,1.3-1.1,2.5-1.1
		c2.1,0,3.4,1.3,3.4,3.4c0,2.2-1.6,3.6-3.9,3.6c-2.8,0-4.5-2-4.5-5.2c0-3.3,1.9-5.5,4.9-5.5C303.6,107.1,304.9,107.5,305.8,108z
		 M300.4,114.3c0,0.8,0.5,1.5,1.6,1.5c1,0,1.6-0.5,1.6-1.5c0-0.9-0.6-1.4-1.5-1.4C301,112.8,300.4,113.4,300.4,114.3z"/>
</g>
<g>
	
		<rect x="148.2" y="97.1" transform="matrix(0.7071 -0.7071 0.7071 0.7071 -24.4922 138.0108)" class="st2" width="12.2" height="3"/>
</g>
<g>
	
		<rect x="152.8" y="92.5" transform="matrix(0.7071 -0.7071 0.7071 0.7071 -24.4911 138.0158)" class="st2" width="3" height="12.2"/>
</g>
<g>
	<path class="st2" d="M160,32.9h-10.4c-0.6,0-1-0.4-1-1s0.4-1,1-1H160c0.6,0,1,0.4,1,1S160.6,32.9,160,32.9z"/>
</g>
<g>
	<g>
		<path class="st1" d="M57.5,70.3c0,6.2,0,12.4,0,18.6c-2.5,0.3-4.9,0.6-7.4,1c0-5.2,0-10.4,0-15.5c-2.6,0.4-5.2,0.7-7.8,1.1
			c0,21.9,0,43.8,0,65.7c2.6-0.4,5.2-0.8,7.8-1.1c0-5.1,0-10.1,0-15.2c2.5-0.3,4.9-0.7,7.4-1c0,6.1,0,12.2,0,18.3
			c-1.4,1.6-2.9,3.2-4.3,4.8c-4.6,0.6-9.2,1.3-13.9,2c-1.4-1.2-2.9-2.4-4.3-3.6c0-23.9,0-47.9,0-71.8c1.4-1.6,2.9-3.3,4.3-4.9
			c4.6-0.7,9.2-1.4,13.9-2C54.6,67.9,56,69.1,57.5,70.3z"/>
	</g>
	<g>
		<path class="st1" d="M82.6,63.3c1.4,1.3,2.9,2.5,4.3,3.8c0,23.9,0,47.9,0,71.8c-1.4,1.5-2.9,3.1-4.3,4.6
			c-4.6,0.4-9.3,0.9-13.9,1.4c-1.4-1.2-2.9-2.5-4.3-3.7c0-23.9,0-47.9,0-71.8c1.4-1.6,2.9-3.2,4.3-4.7
			C73.3,64.2,77.9,63.7,82.6,63.3z M71.6,71.7c0,21.9,0,43.8,0,65.7c2.6-0.3,5.2-0.6,7.9-0.8c0-21.9,0-43.8,0-65.7
			C76.8,71.2,74.2,71.4,71.6,71.7z"/>
	</g>
	<g>
		<path class="st1" d="M110.9,68.5c-1.6,0.1-3.3,0.2-4.9,0.3c0,21.9,0,43.8,0,65.7c1.6-0.1,3.3-0.2,4.9-0.3c0,2.4,0,4.9,0,7.3
			c-1.6,0.1-3.3,0.2-4.9,0.3c-2.4,0.2-4.9,0.3-7.3,0.5c-1.6,0.1-3.3,0.2-4.9,0.4c0-2.4,0-4.9,0-7.3c1.6-0.1,3.3-0.3,4.9-0.4
			c0-21.9,0-43.8,0-65.7c-1.6,0.1-3.3,0.2-4.9,0.4c0-2.4,0-4.9,0-7.3c5.7-0.5,11.4-0.8,17.2-1.2C110.9,63.6,110.9,66,110.9,68.5z"/>
	</g>
	<g>
		<path class="st1" d="M131.8,97.7c0-12.5,0-25,0-37.6c2.4-0.1,4.9-0.1,7.3-0.2c0,26.8,0,53.6,0,80.4c-2.4,0-4.9,0.1-7.3,0.2
			c0-0.1,0-0.2,0-0.3c-2.3-12.7-4.5-25.4-6.8-38c0,12.9,0,25.7,0,38.6c-2.4,0.1-4.9,0.2-7.3,0.3c0-26.8,0-53.6,0-80.4
			c2.2-0.1,4.3-0.2,6.5-0.3c0.3-0.1,0.6-0.1,0.9-0.1C127.4,72.7,129.6,85.2,131.8,97.7z"/>
	</g>
	<g>
		<path class="st1" d="M191.6,65.1c0,6.2,0,12.4,0,18.6c-2.5-0.1-5-0.2-7.4-0.3c0-5.2,0-10.4,0-15.5c-2.6-0.1-5.3-0.2-7.9-0.3
			c0,21.9,0,43.8,0,65.7c2.6,0.1,5.3,0.2,7.9,0.3c0-5.1,0-10.1,0-15.2c2.5,0.1,5,0.2,7.4,0.3c0,6.1,0,12.2,0,18.3
			c-1.4,1.3-2.9,2.7-4.3,4c-4.7-0.2-9.3-0.4-14-0.5c-1.5-1.4-2.9-2.9-4.4-4.3c0-23.9,0-47.9,0-71.8c1.5-1.4,2.9-2.8,4.4-4.1
			c4.7,0.1,9.3,0.3,14,0.5C188.7,62.1,190.2,63.6,191.6,65.1z"/>
	</g>
	<g>
		<path class="st1" d="M216.8,62.5c1.4,1.5,2.9,3.1,4.3,4.6c0,23.9,0,47.9,0,71.8c-1.4,1.3-2.9,2.6-4.3,3.9c-4.6-0.4-9.3-0.7-13.9-1
			c-1.4-1.5-2.9-3-4.3-4.5c0-23.9,0-47.9,0-71.8c1.4-1.3,2.9-2.6,4.3-4C207.5,61.8,212.1,62.1,216.8,62.5z M205.8,69
			c0,21.9,0,43.8,0,65.7c2.6,0.2,5.3,0.4,7.9,0.6c0-21.9,0-43.8,0-65.7C211.1,69.4,208.4,69.2,205.8,69z"/>
	</g>
	<g>
		<path class="st1" d="M245.1,72.7c-1.6-0.2-3.3-0.4-4.9-0.6c0,21.9,0,43.8,0,65.7c1.6,0.2,3.3,0.4,4.9,0.6c0,2.4,0,4.9,0,7.3
			c-1.6-0.2-3.3-0.4-4.9-0.6c-2.4-0.3-4.9-0.5-7.3-0.8c-1.6-0.2-3.3-0.3-4.9-0.5c0-2.4,0-4.9,0-7.3c1.6,0.2,3.3,0.3,4.9,0.5
			c0-21.9,0-43.8,0-65.7c-1.6-0.2-3.3-0.3-4.9-0.5c0-2.4,0-4.9,0-7.3c5.7,0.6,11.4,1.2,17.1,1.9C245.1,67.8,245.1,70.3,245.1,72.7z"
			/>
	</g>
	<g>
		<path class="st1" d="M265.9,105.6c0-12.5,0-25,0-37.6c2.4,0.4,4.8,0.7,7.3,1.1c0,26.8,0,53.6,0,80.4c-2.4-0.4-4.8-0.8-7.3-1.1
			c0-0.1,0-0.2,0-0.3c-2.2-13.1-4.5-26.2-6.7-39.2c0,12.9,0,25.7,0,38.6c-2.4-0.3-4.9-0.7-7.3-1c0-26.8,0-53.6,0-80.4
			c2.2,0.3,4.3,0.6,6.5,0.9c0.3,0,0.6,0,0.9,0C261.5,79.9,263.7,92.7,265.9,105.6z"/>
	</g>
</g>
</svg>
