<?xml version="1.0" encoding="utf-8"?>
<!-- Generator: Adobe Illustrator 19.2.0, SVG Export Plug-In . SVG Version: 6.00 Build 0)  -->
<svg version="1.1" xmlns="http://www.w3.org/2000/svg" xmlns:xlink="http://www.w3.org/1999/xlink" x="0px" y="0px"
	 viewBox="0 0 251.8 255.6" style="enable-background:new 0 0 251.8 255.6;" xml:space="preserve">
<style type="text/css">
	.st0{fill:none;stroke:#333333;stroke-width:3;stroke-linecap:round;stroke-miterlimit:10;}
	.st1{fill:#F15A24;}
	.st2{fill:none;stroke:#333333;stroke-width:3;stroke-linecap:round;stroke-linejoin:round;stroke-miterlimit:10;}
	.st3{fill:#333333;}
</style>
<g id="SWIRL_GAUCHE">
	<path class="st0" d="M14.1,28.9c0,0-13.1-10.2-2.1-18.5s19.5-4.1,21.5-3.1S61.8,22.6,70.7,23s12.1-4.1,12.1-4.1s8.9-7.1,8.8-13
		s-8.9-6-8.8,0.5s10.6,14.8,10.6,14.8"/>
</g>
<g id="SWIRL_DROITE">
	<path class="st0" d="M241,28.9c0,0,13.1-10.2,2.1-18.5s-19.5-4.1-21.5-3.1S193.2,22.6,184.3,23s-12.1-4.1-12.1-4.1s-8.9-7.1-8.8-13
		s8.9-6,8.8,0.5s-10.6,14.8-10.6,14.8"/>
</g>
<g id="LA">
	<g>
		<path class="st1" d="M104.8,33.9h2.1v26.3h15v2.1h-17.1V33.9z"/>
		<path class="st1" d="M138.7,33l13.5,28.9l-1.9,0.9l-4.9-10.5H132l-4.9,10.5l-1.9-0.9L138.7,33z M138.6,37.9L133,50.1h11.3
			L138.6,37.9z"/>
	</g>
</g>
<g id="CHAUMIÈRE">
	<g>
		<path class="st1" d="M23.3,111.9c3.3,0,6.6-1.3,9-3.7l1.5,1.5c-2.8,2.7-6.5,4.3-10.4,4.3c-8.9,0-15.1-7.1-15.1-14.8
			c0-8.9,7.1-15.1,14.8-15.1c4.4,0,8.1,1.7,10.8,4.4L32.4,90c-2.3-2.3-5.5-3.8-9.3-3.8c-6.8,0-12.7,5.5-12.7,12.9
			C10.4,105.9,15.8,111.9,23.3,111.9z"/>
		<path class="st1" d="M42.2,84.9h2.1v12.3h15.1V84.9h2.1v28.4h-2.1v-14H44.3v14h-2.1V84.9z"/>
		<path class="st1" d="M81.6,84l13.5,28.9l-1.9,0.9l-4.9-10.5H75L70,113.7l-1.9-0.9L81.6,84z M81.6,88.9l-5.7,12.2h11.3L81.6,88.9z"
			/>
		<path class="st1" d="M112.6,113.8c-6.7,0-10.8-5.3-10.8-10.6V84.9h2.1v18.3c0,4.3,3.3,8.5,8.7,8.5c4.2,0,8.5-3.4,8.5-8.7V84.9h2.1
			V103C123.2,109.7,117.8,113.8,112.6,113.8z"/>
		<path class="st1" d="M160.3,83.9v29.3h-2.1V89.7l-11.8,14.1l-11.8-14.1v23.6h-2.1V83.9l13.9,16.6L160.3,83.9z"/>
		<path class="st1" d="M169.7,113.3V84.9h2.1v28.4H169.7z"/>
		<path class="st1" d="M191.8,99.3h-8.6v11.9h12.2v2.1h-14.4V84.9H194V87h-10.8v10.2h8.6V99.3z M183,75l5.8,6.2l-1.2,1.2l-6.4-5.7
			L183,75z"/>
		<path class="st1" d="M214.1,102.8c-1,0-2.2-0.2-2.5-0.3l9.9,9.9L220,114l-12.9-12.9h5.7c3.3,0,6.9-2.6,6.9-7.2
			c0-3.3-2.5-6.9-6.9-6.9h-6.6v26.3h-2.1V84.9h8.7c5.7,0,9,4.6,9,9C221.8,98.8,218.2,102.8,214.1,102.8z"/>
		<path class="st1" d="M240.5,99.3h-8.6v11.9h12.2v2.1h-14.4V84.9h12.9V87h-10.8v10.2h8.6V99.3z"/>
	</g>
</g>
<g id="D_x27_ANTAN">
	<path class="st1" d="M60.3,150c0,7.9-6.4,14.2-14.3,14.2H39v-28.4h7.1C53.9,135.9,60.3,142.1,60.3,150z M41.1,138v24.2h5
		c6.7,0,12.1-5.4,12.1-12.1c0-6.7-5.4-12.1-12.1-12.1H41.1z"/>
	<path class="st1" d="M69.7,133.5l-3.2,7.9l-1.6-0.5l2.5-8.2L69.7,133.5z"/>
	<path class="st1" d="M86.6,135l13.5,28.9l-1.9,0.9l-4.9-10.5H80L75,164.7l-1.9-0.9L86.6,135z M86.6,139.9l-5.7,12.2h11.3
		L86.6,139.9z"/>
	<path class="st1" d="M127.3,159.4v-23.6h2.1v29.3l-20.6-24.5v23.6h-2.1v-29.3L127.3,159.4z"/>
	<path class="st1" d="M144.6,164.3V138h-9.8v-2.1h21.5v2.1h-9.6v26.3H144.6z"/>
	<path class="st1" d="M172.5,135l13.5,28.9l-1.9,0.9l-4.9-10.5h-13.3l-4.9,10.5l-1.9-0.9L172.5,135z M172.5,139.9l-5.7,12.2h11.3
		L172.5,139.9z"/>
	<path class="st1" d="M213.1,159.4v-23.6h2.1v29.3l-20.6-24.5v23.6h-2.1v-29.3L213.1,159.4z"/>
</g>
<g id="SWIRL_BAS">
	<path class="st2" d="M241,184.5c0,0,13.1,10.2,2.1,18.5s-19.5,4.1-21.5,3.1s-28.4-15.4-37.2-15.8s-12.1,4.1-12.1,4.1
		s-8.9,7.1-8.8,13s8.9,6,8.8-0.5s-10.6-14.8-10.6-14.8s-15.4-11-26.7-1c-11.3,10-17,14.8-17.5,25c-0.5,10.2,19,17.5,19.2-1.5
		c0,0-2.7-25-29.5-26.8c0,0-9.8,0.1-14,3.8c-4.2,3.7-10.3,8.5-10.3,13.7s9,9,9.2-0.7c0.2-9.7-18.7-15-21.2-15s-16.7-1-33.2,13.3
		s-43.5-5.2-24.8-19.7"/>
</g>
<g id="MÉRIGNAC">
	<g>
		<path class="st3" d="M184.7,242.2v10.5H184v-8.5l-4.2,5.1l-4.2-5.1v8.5h-0.8v-10.5l5,6L184.7,242.2z"/>
		<path class="st3" d="M191.9,247.7h-3.1v4.3h4.4v0.8h-5.2v-10.2h4.6v0.8h-3.9v3.7h3.1V247.7z M190.4,241.7l-0.4-0.4l2.1-2.2
			l0.6,0.6L190.4,241.7z"/>
		<path class="st3" d="M199.9,249c-0.3,0-0.8-0.1-0.9-0.1l3.6,3.6L202,253l-4.6-4.6h2c1.2,0,2.5-0.9,2.5-2.6c0-1.2-0.9-2.5-2.5-2.5
			H197v9.4h-0.8v-10.2h3.1c2.1,0,3.2,1.7,3.2,3.2C202.7,247.6,201.4,249,199.9,249z"/>
		<path class="st3" d="M205.5,252.8v-10.2h0.8v10.2H205.5z"/>
		<path class="st3" d="M214.1,252.3c1.1,0,2.2-0.4,3-1.1v-2h-3v-0.8h3.8v3.1c-1,1-2.3,1.5-3.7,1.5c-3.2,0-5.4-2.5-5.4-5.3
			c0-3.2,2.5-5.4,5.3-5.4c1.6,0,2.9,0.6,3.9,1.6l-0.5,0.5c-0.8-0.8-2-1.4-3.3-1.4c-2.4,0-4.6,2-4.6,4.6
			C209.5,250.1,211.5,252.3,214.1,252.3z"/>
		<path class="st3" d="M228.3,251v-8.5h0.8v10.5l-7.4-8.8v8.5h-0.8v-10.5L228.3,251z"/>
		<path class="st3" d="M236.3,242.2l4.8,10.4l-0.7,0.3l-1.8-3.8h-4.8l-1.8,3.8l-0.7-0.3L236.3,242.2z M236.3,244l-2,4.4h4.1
			L236.3,244z"/>
		<path class="st3" d="M248,252.3c1.2,0,2.4-0.5,3.2-1.3l0.5,0.5c-1,1-2.3,1.5-3.7,1.5c-3.2,0-5.4-2.5-5.4-5.3
			c0-3.2,2.5-5.4,5.3-5.4c1.6,0,2.9,0.6,3.9,1.6l-0.5,0.5c-0.8-0.8-2-1.4-3.3-1.4c-2.4,0-4.6,2-4.6,4.6
			C243.3,250.1,245.3,252.3,248,252.3z"/>
	</g>
</g>
<g id="CONSEIL">
	<g>
		<path class="st3" d="M99.9,252.3c1.2,0,2.4-0.5,3.2-1.3l0.5,0.5c-1,1-2.3,1.5-3.7,1.5c-3.2,0-5.4-2.5-5.4-5.3
			c0-3.2,2.5-5.4,5.3-5.4c1.6,0,2.9,0.6,3.9,1.6l-0.5,0.5c-0.8-0.8-2-1.4-3.3-1.4c-2.4,0-4.6,2-4.6,4.6
			C95.3,250.1,97.3,252.3,99.9,252.3z"/>
		<path class="st3" d="M111.2,242.3c3.2,0,5.4,2.5,5.4,5.3c0,3.2-2.5,5.4-5.3,5.4c-3.2,0-5.4-2.5-5.4-5.3
			C105.8,244.5,108.4,242.3,111.2,242.3z M111.2,243c-2.3,0-4.6,1.8-4.6,4.6c0,2.3,1.8,4.6,4.6,4.6c2.4,0,4.6-1.8,4.6-4.6
			C115.8,245.1,113.8,243,111.2,243z"/>
		<path class="st3" d="M126.4,251v-8.5h0.8v10.5l-7.4-8.8v8.5H119v-10.5L126.4,251z"/>
		<path class="st3" d="M132.8,253.1c-1.1,0-3-0.5-3.2-3.2l0.8,0c0.2,2.1,1.5,2.5,2.4,2.5c1.6,0,2.5-1.3,2.5-2.4
			c0-0.9-0.4-1.5-2.7-2.1c-1.3-0.3-2.5-1.1-2.5-2.6c0-2,1.6-2.8,2.8-2.8c1.7,0,2.8,1.3,2.9,2.8l-0.8,0c-0.1-1.1-0.8-2.1-2.1-2.1
			c-0.9,0-2,0.6-2,2c0,1.1,0.9,1.6,2,1.9c2.7,0.7,3.3,1.6,3.3,2.8C136.1,251.4,134.9,253.1,132.8,253.1z"/>
		<path class="st3" d="M142.6,247.7h-3.1v4.3h4.4v0.8h-5.2v-10.2h4.6v0.8h-3.9v3.7h3.1V247.7z"/>
		<path class="st3" d="M147,252.8v-10.2h0.8v10.2H147z"/>
		<path class="st3" d="M151.2,242.6h0.8v9.4h5.4v0.8h-6.1V242.6z"/>
	</g>
</g>
<g id="ANTIQUITÉ">
	<g>
		<path class="st3" d="M4.8,242.2l4.8,10.4L9,252.9l-1.8-3.8H2.5l-1.8,3.8L0,252.6L4.8,242.2z M4.8,244l-2,4.4h4.1L4.8,244z"/>
		<path class="st3" d="M19.4,251v-8.5h0.8v10.5l-7.4-8.8v8.5h-0.8v-10.5L19.4,251z"/>
		<path class="st3" d="M25.6,252.8v-9.4h-3.5v-0.8h7.7v0.8h-3.4v9.4H25.6z"/>
		<path class="st3" d="M31.8,252.8v-10.2h0.8v10.2H31.8z"/>
		<path class="st3" d="M44.2,251.5l1.5,1.5l-0.5,0.5l-1.6-1.6c-0.9,0.7-2,1.1-3.2,1.1c-3.2,0-5.4-2.5-5.4-5.3c0-3.2,2.5-5.4,5.3-5.4
			c3.2,0,5.4,2.5,5.4,5.3C45.7,249,45.3,250.4,44.2,251.5z M45,247.6c0-2.5-2-4.6-4.7-4.6c-2.3,0-4.6,1.8-4.6,4.6
			c0,2.3,1.8,4.6,4.6,4.6C42.7,252.3,45,250.4,45,247.6z"/>
		<path class="st3" d="M52.4,253c-2.4,0-3.9-1.9-3.9-3.8v-6.6h0.8v6.6c0,1.5,1.2,3.1,3.1,3.1c1.5,0,3.1-1.2,3.1-3.1v-6.5h0.8v6.5
			C56.2,251.5,54.3,253,52.4,253z"/>
		<path class="st3" d="M59.6,252.8v-10.2h0.8v10.2H59.6z"/>
		<path class="st3" d="M65.8,252.8v-9.4h-3.5v-0.8H70v0.8h-3.4v9.4H65.8z"/>
		<path class="st3" d="M75.8,247.7h-3.1v4.3h4.4v0.8H72v-10.2h4.6v0.8h-3.9v3.7h3.1V247.7z M74.3,241.7l-0.4-0.4L76,239l0.6,0.6
			L74.3,241.7z"/>
	</g>
</g>
<g id="SÉPARATEUR_GAUCHE">
	<path class="st3" d="M85.8,255.6v-14h0.7v14H85.8z"/>
</g>
<g id="SÉPARATEUR_DROIT">
	<path class="st3" d="M165.1,255.6v-14h0.7v14H165.1z"/>
</g>
</svg>
